<svg width="25" height="20" viewBox="0 0 25 20" fill="none" xmlns="http://www.w3.org/2000/svg">
<path d="M25.0001 4.41905V16.2503C25.0001 17.2068 24.6347 18.1272 23.9785 18.8231C23.3223 19.5191 22.4249 19.9379 21.4701 19.994L21.2501 20.0003H3.75006C2.79355 20.0003 1.87317 19.6349 1.17723 18.9787C0.481302 18.3225 0.0624266 17.4252 0.00631118 16.4703L6.10352e-05 16.2503V4.41905L11.8063 12.2903L11.9513 12.3728C12.1222 12.4563 12.3099 12.4997 12.5001 12.4997C12.6902 12.4997 12.8779 12.4563 13.0488 12.3728L13.1938 12.2903L25.0001 4.41905Z" fill="#DB1924"/>
<path d="M21.2503 0C22.6003 0 23.7841 0.7125 24.4441 1.78375L12.5003 9.74625L0.556587 1.78375C0.870078 1.27478 1.3007 0.848126 1.81255 0.539362C2.3244 0.230598 2.90265 0.0486716 3.49909 0.00874996L3.75034 0H21.2503Z" fill="#DB1924"/>
</svg>
