<svg width="20" height="16" viewBox="0 0 20 16" fill="none" xmlns="http://www.w3.org/2000/svg">
<path d="M19.1328 3.38184V12.4364C19.1328 13.1684 18.8531 13.8728 18.3509 14.4054C17.8487 14.938 17.162 15.2585 16.4312 15.3015L16.2629 15.3063H2.87002C2.13799 15.3063 1.43362 15.0266 0.90102 14.5244C0.368419 14.0222 0.0478508 13.3355 0.00490534 12.6047L0.00012207 12.4364V3.38184L9.03552 9.40575L9.14649 9.46889C9.27726 9.53279 9.4209 9.566 9.56645 9.566C9.712 9.566 9.85563 9.53279 9.98641 9.46889L10.0974 9.40575L19.1328 3.38184Z" fill="#DB1924"/>
<path d="M16.2627 0C17.2959 0 18.2018 0.545281 18.7069 1.36511L9.56628 7.45886L0.425659 1.36511C0.665575 0.975596 0.995134 0.649076 1.38686 0.412777C1.77858 0.176478 2.22112 0.0372487 2.67757 0.0066964L2.86986 0H16.2627Z" fill="#DB1924"/>
</svg>
