<svg width="17" height="17" viewBox="0 0 17 17" fill="none" xmlns="http://www.w3.org/2000/svg">
<path d="M15.8546 16.8367C13.9059 16.8367 11.9806 16.4121 10.0787 15.5628C8.17673 14.7134 6.44629 13.509 4.88733 11.9494C3.32837 10.3898 2.12423 8.65938 1.27491 6.75808C0.425595 4.85677 0.000623583 2.93146 0 0.982143C0 0.701531 0.0935374 0.467687 0.280612 0.280612C0.467687 0.0935374 0.701531 0 0.982143 0H4.77041C4.98866 0 5.18353 0.0742063 5.35502 0.222619C5.5265 0.371032 5.62783 0.546258 5.65901 0.748299L6.26701 4.02211C6.29819 4.27154 6.29039 4.482 6.24362 4.65349C6.19685 4.82497 6.11111 4.97307 5.98639 5.09779L3.71811 7.38946C4.0299 7.96627 4.4 8.52344 4.8284 9.06097C5.2568 9.5985 5.72854 10.117 6.24362 10.6165C6.7269 11.0998 7.23356 11.5481 7.76361 11.9616C8.29365 12.375 8.85488 12.7529 9.44728 13.0952L11.6454 10.8971C11.7857 10.7568 11.969 10.6517 12.1954 10.5819C12.4218 10.512 12.6438 10.4924 12.8614 10.523L16.0884 11.1777C16.3067 11.2401 16.486 11.3533 16.6263 11.5173C16.7666 11.6813 16.8367 11.8643 16.8367 12.0663V15.8546C16.8367 16.1352 16.7432 16.369 16.5561 16.5561C16.369 16.7432 16.1352 16.8367 15.8546 16.8367Z" fill="#DB1924"/>
</svg>
