<svg width="18" height="18" viewBox="0 0 18 18" fill="none" xmlns="http://www.w3.org/2000/svg">
<path fill-rule="evenodd" clip-rule="evenodd" d="M18 18H14.3015V11.7007C14.3015 9.97364 13.6453 9.00849 12.2783 9.00849C10.7912 9.00849 10.0142 10.0129 10.0142 11.7007V18H6.45001V6H10.0142V7.6164C10.0142 7.6164 11.086 5.63339 13.6324 5.63339C16.1778 5.63339 18 7.1877 18 10.4023V18ZM2.19785 4.4287C0.983786 4.4287 0 3.43718 0 2.21435C0 0.991504 0.983786 0 2.19785 0C3.41191 0 4.39511 0.991504 4.39511 2.21435C4.39511 3.43718 3.41191 4.4287 2.19785 4.4287ZM0.357418 18H4.07403V6H0.357418V18Z" fill="#DB1924"/>
</svg>
