<svg width="18" height="18" viewBox="0 0 18 18" fill="none" xmlns="http://www.w3.org/2000/svg">
<path d="M13.806 3.114C13.5924 3.114 13.3836 3.17734 13.206 3.29601C13.0284 3.41468 12.89 3.58336 12.8082 3.7807C12.7265 3.97805 12.7051 4.1952 12.7468 4.4047C12.7884 4.6142 12.8913 4.80663 13.0423 4.95768C13.1934 5.10872 13.3858 5.21158 13.5953 5.25325C13.8048 5.29492 14.022 5.27353 14.2193 5.19179C14.4166 5.11005 14.5853 4.97162 14.704 4.79402C14.8227 4.61641 14.886 4.4076 14.886 4.194C14.886 3.90757 14.7722 3.63286 14.5697 3.43032C14.3671 3.22779 14.0924 3.114 13.806 3.114ZM17.946 5.292C17.9283 4.54529 17.7885 3.80651 17.532 3.105C17.3042 2.50429 16.9479 1.96062 16.488 1.512C16.0423 1.05068 15.4976 0.696759 14.895 0.477C14.1954 0.212545 13.4558 0.069489 12.708 0.0539999C11.754 -5.02914e-08 11.448 0 9 0C6.552 0 6.246 -5.02914e-08 5.292 0.0539999C4.54424 0.069489 3.80461 0.212545 3.105 0.477C2.50378 0.699527 1.95963 1.05307 1.512 1.512C1.05068 1.95766 0.696759 2.5024 0.477 3.105C0.212545 3.80461 0.069489 4.54424 0.0539999 5.292C-5.02914e-08 6.246 0 6.552 0 9C0 11.448 -5.02914e-08 11.754 0.0539999 12.708C0.069489 13.4558 0.212545 14.1954 0.477 14.895C0.696759 15.4976 1.05068 16.0423 1.512 16.488C1.95963 16.9469 2.50378 17.3005 3.105 17.523C3.80461 17.7875 4.54424 17.9305 5.292 17.946C6.246 18 6.552 18 9 18C11.448 18 11.754 18 12.708 17.946C13.4558 17.9305 14.1954 17.7875 14.895 17.523C15.4976 17.3032 16.0423 16.9493 16.488 16.488C16.949 16.0403 17.3055 15.4964 17.532 14.895C17.7885 14.1935 17.9283 13.4547 17.946 12.708C17.946 11.754 18 11.448 18 9C18 6.552 18 6.246 17.946 5.292ZM16.326 12.6C16.3196 13.1713 16.2161 13.7374 16.02 14.274C15.8763 14.6657 15.6455 15.0196 15.345 15.309C15.0529 15.6062 14.6998 15.8365 14.31 15.984C13.7734 16.1801 13.2073 16.2836 12.636 16.29C11.736 16.335 11.403 16.344 9.036 16.344C6.669 16.344 6.336 16.344 5.436 16.29C4.84276 16.3017 4.25201 16.2103 3.69 16.02C3.31757 15.8646 2.98071 15.6349 2.7 15.345C2.40128 15.0559 2.17336 14.7017 2.034 14.31C1.81354 13.7659 1.69164 13.1868 1.674 12.6C1.674 11.7 1.62 11.367 1.62 9C1.62 6.633 1.62 6.3 1.674 5.4C1.67728 4.81588 1.78393 4.23695 1.989 3.69C2.14744 3.31012 2.39064 2.97149 2.7 2.7C2.97263 2.38967 3.31077 2.14375 3.69 1.98C4.23846 1.78153 4.81675 1.67805 5.4 1.674C6.3 1.674 6.633 1.62 9 1.62C11.367 1.62 11.7 1.62 12.6 1.674C13.1713 1.68038 13.7374 1.78385 14.274 1.98C14.683 2.13179 15.0501 2.37856 15.345 2.7C15.639 2.97722 15.8694 3.31501 16.02 3.69C16.2202 4.23799 16.3237 4.81659 16.326 5.4C16.371 6.3 16.38 6.633 16.38 9C16.38 11.367 16.371 11.7 16.326 12.6ZM9 4.383C8.08723 4.38478 7.19547 4.65707 6.43739 5.16548C5.67931 5.67388 5.08894 6.39558 4.74087 7.23938C4.3928 8.08318 4.30265 9.01122 4.48181 9.90624C4.66098 10.8013 5.10141 11.6231 5.74747 12.2679C6.39352 12.9127 7.21621 13.3515 8.11157 13.5289C9.00694 13.7064 9.9348 13.6144 10.7779 13.2647C11.621 12.915 12.3416 12.3232 12.8485 11.5641C13.3554 10.8051 13.626 9.91277 13.626 9C13.6272 8.39259 13.5083 7.79095 13.2761 7.22966C13.0439 6.66838 12.7031 6.15853 12.2732 5.72945C11.8433 5.30036 11.3328 4.96051 10.771 4.72944C10.2093 4.49836 9.6074 4.38063 9 4.383ZM9 11.997C8.40725 11.997 7.82781 11.8212 7.33496 11.4919C6.8421 11.1626 6.45797 10.6945 6.23113 10.1469C6.0043 9.59927 5.94495 8.99668 6.06059 8.41531C6.17623 7.83395 6.46166 7.29994 6.8808 6.8808C7.29994 6.46166 7.83395 6.17623 8.41531 6.06059C8.99668 5.94495 9.59927 6.0043 10.1469 6.23113C10.6945 6.45797 11.1626 6.8421 11.4919 7.33496C11.8212 7.82781 11.997 8.40725 11.997 9C11.997 9.39357 11.9195 9.78329 11.7689 10.1469C11.6183 10.5105 11.3975 10.8409 11.1192 11.1192C10.8409 11.3975 10.5105 11.6183 10.1469 11.7689C9.78329 11.9195 9.39357 11.997 9 11.997Z" fill="#DB1924"/>
</svg>
