<svg width="257" height="101" viewBox="0 0 257 101" fill="none" xmlns="http://www.w3.org/2000/svg">
<path d="M0.340044 93.4849C0.497471 93.4912 0.698978 93.4975 0.944565 93.5037C1.19015 93.51 1.43574 93.5132 1.68133 93.5132C1.98988 93.5132 2.2827 93.51 2.55977 93.5037C2.83684 93.4975 3.03205 93.4943 3.1454 93.4943C3.71214 93.4943 4.17813 93.5636 4.54336 93.7021C4.91489 93.8343 5.19196 94.0233 5.37458 94.2688C5.55719 94.5144 5.6485 94.8041 5.6485 95.1378C5.6485 95.3456 5.60757 95.5598 5.52571 95.7801C5.44384 95.9943 5.30216 96.1926 5.10065 96.3752C4.89915 96.5578 4.62207 96.709 4.26944 96.8286C3.92309 96.942 3.47915 96.9986 2.9376 96.9986H2.03082V96.8097H2.84314C3.23986 96.8097 3.54212 96.7405 3.74992 96.6019C3.96403 96.4571 4.10571 96.2682 4.17498 96.0352C4.25054 95.7959 4.28833 95.5314 4.28833 95.2417C4.28833 94.7443 4.19072 94.3602 3.99551 94.0894C3.8003 93.8123 3.46341 93.6738 2.98483 93.6738C2.72665 93.6738 2.55662 93.7273 2.47476 93.8343C2.3992 93.9414 2.36141 94.1586 2.36141 94.4861V99.1711C2.36141 99.3978 2.3803 99.5679 2.41809 99.6812C2.45587 99.7946 2.52514 99.8701 2.62589 99.9079C2.73294 99.9457 2.88722 99.9709 3.08873 99.9835V100.172C2.9313 100.16 2.72979 100.153 2.48421 100.153C2.23862 100.147 1.98988 100.144 1.738 100.144C1.45463 100.144 1.19015 100.147 0.944565 100.153C0.698978 100.153 0.497471 100.16 0.340044 100.172V99.9835C0.547848 99.9709 0.702127 99.9457 0.802881 99.9079C0.909931 99.8701 0.979199 99.7946 1.01068 99.6812C1.04847 99.5679 1.06736 99.3978 1.06736 99.1711V94.4861C1.06736 94.2531 1.04847 94.0831 1.01068 93.976C0.979199 93.8627 0.909931 93.7871 0.802881 93.7493C0.702127 93.7053 0.547848 93.6801 0.340044 93.6738V93.4849ZM2.03082 96.8381C2.32678 96.8507 2.57237 96.8664 2.76758 96.8853C2.96908 96.8979 3.13911 96.9105 3.27764 96.9231C3.42247 96.9357 3.55157 96.9514 3.66491 96.9703C4.18757 97.0207 4.5717 97.1435 4.81728 97.3387C5.06917 97.5276 5.23604 97.8173 5.3179 98.2077L5.53515 99.1806C5.59183 99.4388 5.65165 99.6245 5.71462 99.7379C5.78389 99.8449 5.88149 99.8953 6.00744 99.889C6.0956 99.889 6.17116 99.867 6.23413 99.8229C6.2971 99.7725 6.36007 99.7064 6.42304 99.6245L6.55528 99.7379C6.39786 99.9331 6.23098 100.078 6.05466 100.172C5.87835 100.261 5.6548 100.305 5.38402 100.305C5.08176 100.305 4.82673 100.235 4.61892 100.097C4.41112 99.952 4.26944 99.6812 4.19387 99.2845L4.0144 98.3399C3.96403 98.0754 3.9042 97.8425 3.83494 97.6409C3.77196 97.4394 3.6838 97.282 3.57046 97.1687C3.45711 97.0553 3.29024 96.9986 3.06984 96.9986H2.04971L2.03082 96.8381ZM18.6623 93.4849C18.6371 93.743 18.6182 93.9949 18.6056 94.2405C18.5994 94.4798 18.5962 94.6624 18.5962 94.7884C18.5962 94.908 18.5994 95.0245 18.6056 95.1378C18.6119 95.2449 18.6182 95.3362 18.6245 95.4118H18.4073C18.3569 94.9773 18.2751 94.6372 18.1617 94.3916C18.0484 94.1398 17.8941 93.9634 17.6989 93.8627C17.51 93.7556 17.2612 93.7021 16.9527 93.7021H16.4331C16.2442 93.7021 16.0994 93.7178 15.9986 93.7493C15.8979 93.7808 15.8286 93.8469 15.7908 93.9477C15.7594 94.0484 15.7436 94.2027 15.7436 94.4105V99.2467C15.7436 99.4482 15.7594 99.6025 15.7908 99.7095C15.8286 99.8103 15.8979 99.8764 15.9986 99.9079C16.0994 99.9394 16.2442 99.9551 16.4331 99.9551H16.9716C17.2927 99.9551 17.5603 99.8953 17.7744 99.7757C17.9948 99.656 18.1711 99.4608 18.3034 99.19C18.4356 98.913 18.5332 98.5351 18.5962 98.0566H18.8135C18.7946 98.2518 18.7851 98.5036 18.7851 98.8122C18.7851 98.9444 18.7883 99.1365 18.7946 99.3884C18.8072 99.6403 18.826 99.9016 18.8512 100.172C18.5301 100.16 18.168 100.153 17.765 100.153C17.362 100.147 17.003 100.144 16.6882 100.144C16.5433 100.144 16.3513 100.144 16.112 100.144C15.879 100.144 15.624 100.147 15.3469 100.153C15.0761 100.153 14.7991 100.157 14.5157 100.163C14.2386 100.163 13.9741 100.166 13.7222 100.172V99.9835C13.9301 99.9709 14.0843 99.9457 14.1851 99.9079C14.2921 99.8701 14.3614 99.7946 14.3929 99.6812C14.4307 99.5679 14.4496 99.3978 14.4496 99.1711V94.4861C14.4496 94.2531 14.4307 94.0831 14.3929 93.976C14.3614 93.8627 14.2921 93.7871 14.1851 93.7493C14.0843 93.7053 13.9301 93.6801 13.7222 93.6738V93.4849C13.9741 93.4912 14.2386 93.4975 14.5157 93.5037C14.7991 93.5037 15.0761 93.5069 15.3469 93.5132C15.624 93.5132 15.879 93.5132 16.112 93.5132C16.3513 93.5132 16.5433 93.5132 16.6882 93.5132C16.9778 93.5132 17.3053 93.5132 17.6705 93.5132C18.0421 93.5069 18.3727 93.4975 18.6623 93.4849ZM17.1416 96.7153C17.1416 96.7153 17.1416 96.7468 17.1416 96.8097C17.1416 96.8727 17.1416 96.9042 17.1416 96.9042H15.4602C15.4602 96.9042 15.4602 96.8727 15.4602 96.8097C15.4602 96.7468 15.4602 96.7153 15.4602 96.7153H17.1416ZM17.4155 95.4684C17.3903 95.8274 17.3777 96.1013 17.3777 96.2902C17.384 96.4791 17.3872 96.6523 17.3872 96.8097C17.3872 96.9672 17.3903 97.1403 17.3966 97.3292C17.4029 97.5181 17.4186 97.7921 17.4438 98.151H17.2266C17.1951 97.9369 17.1447 97.7354 17.0755 97.5465C17.0125 97.3513 16.9086 97.197 16.7637 97.0836C16.6252 96.964 16.4237 96.9042 16.1592 96.9042V96.7153C16.3544 96.7153 16.5119 96.6743 16.6315 96.5925C16.7574 96.5106 16.8582 96.4067 16.9338 96.2808C17.0093 96.1485 17.066 96.0131 17.1038 95.8746C17.1479 95.7298 17.1794 95.5944 17.1982 95.4684H17.4155ZM29.6098 93.4565L31.9051 99.3789C31.9996 99.6056 32.1003 99.7631 32.2074 99.8512C32.3207 99.9331 32.4246 99.9772 32.5191 99.9835V100.172C32.3554 100.16 32.157 100.153 31.924 100.153C31.6973 100.147 31.4643 100.144 31.225 100.144C30.948 100.144 30.6898 100.147 30.4505 100.153C30.2112 100.153 30.016 100.16 29.8649 100.172V99.9835C30.186 99.9709 30.3907 99.9173 30.4788 99.8229C30.567 99.7221 30.5481 99.5112 30.4222 99.19L28.7597 94.7033L28.9297 94.4955L27.4184 98.4155C27.2988 98.7303 27.2264 98.9885 27.2012 99.19C27.176 99.3915 27.1917 99.549 27.2484 99.6623C27.3051 99.7757 27.3996 99.8575 27.5318 99.9079C27.664 99.952 27.8278 99.9772 28.023 99.9835V100.172C27.8215 100.16 27.6262 100.153 27.4373 100.153C27.2484 100.147 27.0595 100.144 26.8706 100.144C26.7321 100.144 26.5998 100.147 26.4739 100.153C26.3542 100.153 26.2472 100.16 26.1527 100.172V99.9835C26.2913 99.952 26.4266 99.8701 26.5589 99.7379C26.6974 99.6056 26.8297 99.3758 26.9556 99.0483L29.1187 93.4565C29.1942 93.4628 29.2761 93.466 29.3642 93.466C29.4524 93.466 29.5343 93.4628 29.6098 93.4565ZM30.4316 97.452V97.6409H27.6168L27.7113 97.452H30.4316ZM42.3968 93.4849V93.6738C42.1827 93.6801 42.019 93.7053 41.9056 93.7493C41.7986 93.7871 41.7262 93.8627 41.6884 93.976C41.6506 94.0831 41.6317 94.2531 41.6317 94.4861V99.2467C41.6317 99.4482 41.6475 99.6025 41.6789 99.7095C41.7167 99.8103 41.7828 99.8764 41.8773 99.9079C41.9718 99.9394 42.1071 99.9551 42.2835 99.9551H42.8219C43.0675 99.9551 43.2816 99.911 43.4642 99.8229C43.6531 99.7347 43.8168 99.6056 43.9553 99.4356C44.0939 99.2656 44.2072 99.0578 44.2954 98.8122C44.3835 98.5603 44.4465 98.277 44.4843 97.9621H44.7016C44.6827 98.1699 44.6732 98.4407 44.6732 98.7744C44.6732 98.913 44.6764 99.1113 44.6827 99.3695C44.6953 99.6277 44.7141 99.8953 44.7393 100.172C44.4182 100.16 44.0561 100.153 43.6531 100.153C43.2501 100.147 42.8911 100.144 42.5763 100.144C42.4252 100.144 42.2331 100.144 42.0001 100.144C41.7671 100.144 41.5121 100.147 41.235 100.153C40.9642 100.153 40.6871 100.157 40.4038 100.163C40.1267 100.163 39.8622 100.166 39.6103 100.172V99.9835C39.8181 99.9709 39.9724 99.9457 40.0732 99.9079C40.1802 99.8701 40.2495 99.7946 40.281 99.6812C40.3188 99.5679 40.3377 99.3978 40.3377 99.1711V94.4861C40.3377 94.2531 40.3188 94.0831 40.281 93.976C40.2495 93.8627 40.1802 93.7871 40.0732 93.7493C39.9724 93.7053 39.8181 93.6801 39.6103 93.6738V93.4849C39.7678 93.4912 39.9693 93.4975 40.2149 93.5037C40.4605 93.51 40.7249 93.5132 41.0083 93.5132C41.2665 93.5132 41.5215 93.51 41.7734 93.5037C42.0253 93.4975 42.2331 93.4912 42.3968 93.4849ZM66.3891 93.4849C66.3639 93.743 66.345 93.9949 66.3324 94.2405C66.3261 94.4798 66.3229 94.6624 66.3229 94.7884C66.3229 94.908 66.3261 95.0245 66.3324 95.1378C66.3387 95.2449 66.345 95.3362 66.3513 95.4118H66.134C66.0837 94.9773 66.0018 94.6372 65.8884 94.3916C65.7751 94.1398 65.6208 93.9634 65.4256 93.8627C65.2367 93.7556 64.988 93.7021 64.6794 93.7021H64.1599C63.971 93.7021 63.8261 93.7178 63.7254 93.7493C63.6246 93.7808 63.5554 93.8469 63.5176 93.9477C63.4861 94.0484 63.4704 94.2027 63.4704 94.4105V99.2467C63.4704 99.4482 63.4861 99.6025 63.5176 99.7095C63.5554 99.8103 63.6246 99.8764 63.7254 99.9079C63.8261 99.9394 63.971 99.9551 64.1599 99.9551H64.6983C65.0194 99.9551 65.2871 99.8953 65.5012 99.7757C65.7216 99.656 65.8979 99.4608 66.0301 99.19C66.1624 98.913 66.26 98.5351 66.3229 98.0566H66.5402C66.5213 98.2518 66.5119 98.5036 66.5119 98.8122C66.5119 98.9444 66.515 99.1365 66.5213 99.3884C66.5339 99.6403 66.5528 99.9016 66.578 100.172C66.2568 100.16 65.8947 100.153 65.4917 100.153C65.0887 100.147 64.7298 100.144 64.4149 100.144C64.2701 100.144 64.078 100.144 63.8387 100.144C63.6057 100.144 63.3507 100.147 63.0736 100.153C62.8029 100.153 62.5258 100.157 62.2424 100.163C61.9654 100.163 61.7009 100.166 61.449 100.172V99.9835C61.6568 99.9709 61.8111 99.9457 61.9118 99.9079C62.0189 99.8701 62.0881 99.7946 62.1196 99.6812C62.1574 99.5679 62.1763 99.3978 62.1763 99.1711V94.4861C62.1763 94.2531 62.1574 94.0831 62.1196 93.976C62.0881 93.8627 62.0189 93.7871 61.9118 93.7493C61.8111 93.7053 61.6568 93.6801 61.449 93.6738V93.4849C61.7009 93.4912 61.9654 93.4975 62.2424 93.5037C62.5258 93.5037 62.8029 93.5069 63.0736 93.5132C63.3507 93.5132 63.6057 93.5132 63.8387 93.5132C64.078 93.5132 64.2701 93.5132 64.4149 93.5132C64.7046 93.5132 65.032 93.5132 65.3973 93.5132C65.7688 93.5069 66.0994 93.4975 66.3891 93.4849ZM64.8683 96.7153C64.8683 96.7153 64.8683 96.7468 64.8683 96.8097C64.8683 96.8727 64.8683 96.9042 64.8683 96.9042H63.187C63.187 96.9042 63.187 96.8727 63.187 96.8097C63.187 96.7468 63.187 96.7153 63.187 96.7153H64.8683ZM65.1422 95.4684C65.1171 95.8274 65.1045 96.1013 65.1045 96.2902C65.1108 96.4791 65.1139 96.6523 65.1139 96.8097C65.1139 96.9672 65.1171 97.1403 65.1234 97.3292C65.1296 97.5181 65.1454 97.7921 65.1706 98.151H64.9533C64.9218 97.9369 64.8715 97.7354 64.8022 97.5465C64.7392 97.3513 64.6353 97.197 64.4905 97.0836C64.352 96.964 64.1504 96.9042 63.886 96.9042V96.7153C64.0812 96.7153 64.2386 96.6743 64.3583 96.5925C64.4842 96.5106 64.5849 96.4067 64.6605 96.2808C64.7361 96.1485 64.7928 96.0131 64.8305 95.8746C64.8746 95.7298 64.9061 95.5944 64.925 95.4684H65.1422ZM76.5904 93.3715C76.943 93.3715 77.2138 93.4093 77.4027 93.4849C77.5916 93.5604 77.7553 93.6423 77.8939 93.7304C77.9694 93.7745 78.0293 93.8092 78.0733 93.8343C78.1237 93.8532 78.1709 93.8627 78.215 93.8627C78.278 93.8627 78.3221 93.828 78.3473 93.7588C78.3788 93.6895 78.4039 93.5856 78.4228 93.4471H78.6401C78.6338 93.5667 78.6243 93.7053 78.6117 93.8627C78.6054 94.0201 78.5992 94.2311 78.5929 94.4955C78.5929 94.7537 78.5929 95.0969 78.5929 95.5251H78.3756C78.3567 95.204 78.2843 94.8954 78.1584 94.5994C78.0387 94.3035 77.8655 94.061 77.6388 93.8721C77.4184 93.6769 77.1351 93.5793 76.7887 93.5793C76.4802 93.5793 76.222 93.6706 76.0142 93.8532C75.8127 94.0359 75.7119 94.2814 75.7119 94.59C75.7119 94.8545 75.778 95.078 75.9103 95.2606C76.0425 95.437 76.2283 95.6101 76.4676 95.7801C76.7132 95.9439 77.0028 96.1328 77.3366 96.3469C77.6451 96.5484 77.9222 96.7499 78.1678 96.9514C78.4134 97.1466 78.6054 97.3639 78.744 97.6032C78.8888 97.8425 78.9612 98.1353 78.9612 98.4816C78.9612 98.8909 78.8605 99.231 78.659 99.5017C78.4575 99.7725 78.1867 99.974 77.8466 100.106C77.5066 100.238 77.1351 100.305 76.7321 100.305C76.3605 100.305 76.0646 100.267 75.8442 100.191C75.6301 100.116 75.4443 100.037 75.2869 99.9551C75.1483 99.867 75.0413 99.8229 74.9657 99.8229C74.9028 99.8229 74.8555 99.8575 74.824 99.9268C74.7988 99.9961 74.7768 100.1 74.7579 100.238H74.5407C74.5533 100.094 74.5596 99.9236 74.5596 99.7284C74.5659 99.5332 74.569 99.2813 74.569 98.9728C74.5753 98.6579 74.5785 98.2612 74.5785 97.7826H74.7957C74.8209 98.1856 74.8902 98.5635 75.0035 98.9161C75.1232 99.2624 75.3026 99.5427 75.5419 99.7568C75.7875 99.9709 76.1118 100.078 76.5148 100.078C76.7352 100.078 76.9336 100.04 77.1099 99.9646C77.2925 99.8827 77.4373 99.7599 77.5444 99.5962C77.6514 99.4262 77.705 99.2121 77.705 98.9539C77.705 98.6957 77.6451 98.469 77.5255 98.2738C77.4058 98.0786 77.239 97.896 77.0249 97.726C76.8108 97.5559 76.5589 97.3828 76.2692 97.2064C75.9733 97.0175 75.6962 96.8255 75.438 96.6303C75.1798 96.435 74.972 96.2146 74.8146 95.9691C74.6635 95.7172 74.5879 95.4149 74.5879 95.0623C74.5879 94.6719 74.6824 94.3539 74.8713 94.1083C75.0602 93.8564 75.3058 93.6706 75.608 93.551C75.9166 93.4313 76.244 93.3715 76.5904 93.3715ZM92.2828 93.4849C92.2576 93.7745 92.2387 94.0579 92.2261 94.335C92.2198 94.6057 92.2167 94.8135 92.2167 94.9584C92.2167 95.1032 92.2198 95.2386 92.2261 95.3645C92.2324 95.4905 92.2387 95.6007 92.245 95.6951H92.0277C91.9396 95.1914 91.8325 94.7978 91.7066 94.5144C91.5806 94.2248 91.4138 94.017 91.206 93.891C91.0045 93.7651 90.7368 93.7021 90.4031 93.7021H90.1008V99.0861C90.1008 99.3443 90.1229 99.5364 90.1669 99.6623C90.2173 99.7883 90.3149 99.8733 90.4598 99.9173C90.6046 99.9551 90.8156 99.9772 91.0926 99.9835V100.172C90.9037 100.16 90.6581 100.153 90.3559 100.153C90.0536 100.147 89.745 100.144 89.4302 100.144C89.1027 100.144 88.7942 100.147 88.5045 100.153C88.2211 100.153 87.9913 100.16 87.815 100.172V99.9835C88.0858 99.9772 88.2936 99.9551 88.4384 99.9173C88.5832 99.8733 88.6808 99.7883 88.7312 99.6623C88.7816 99.5364 88.8068 99.3443 88.8068 99.0861V93.7021H88.4951C88.1676 93.7021 87.9 93.7651 87.6922 93.891C87.4844 94.017 87.3175 94.2248 87.1916 94.5144C87.0656 94.7978 86.9617 95.1914 86.8799 95.6951H86.6626C86.6752 95.6007 86.6815 95.4905 86.6815 95.3645C86.6878 95.2386 86.6909 95.1032 86.6909 94.9584C86.6909 94.8135 86.6847 94.6057 86.6721 94.335C86.6658 94.0579 86.65 93.7745 86.6248 93.4849C86.9019 93.4912 87.2073 93.4975 87.5411 93.5037C87.8748 93.51 88.2086 93.5132 88.5423 93.5132C88.876 93.5132 89.1815 93.5132 89.4585 93.5132C89.7293 93.5132 90.0316 93.5132 90.3653 93.5132C90.6991 93.5132 91.0328 93.51 91.3665 93.5037C91.7003 93.4975 92.0057 93.4912 92.2828 93.4849ZM102.348 93.4565L104.644 99.3789C104.738 99.6056 104.839 99.7631 104.946 99.8512C105.059 99.9331 105.163 99.9772 105.258 99.9835V100.172C105.094 100.16 104.896 100.153 104.663 100.153C104.436 100.147 104.203 100.144 103.964 100.144C103.687 100.144 103.428 100.147 103.189 100.153C102.95 100.153 102.755 100.16 102.603 100.172V99.9835C102.925 99.9709 103.129 99.9173 103.217 99.8229C103.306 99.7221 103.287 99.5112 103.161 99.19L101.498 94.7033L101.668 94.4955L100.157 98.4155C100.037 98.7303 99.9649 98.9885 99.9397 99.19C99.9145 99.3915 99.9303 99.549 99.987 99.6623C100.044 99.7757 100.138 99.8575 100.27 99.9079C100.403 99.952 100.566 99.9772 100.762 99.9835V100.172C100.56 100.16 100.365 100.153 100.176 100.153C99.987 100.147 99.7981 100.144 99.6091 100.144C99.4706 100.144 99.3384 100.147 99.2124 100.153C99.0928 100.153 98.9857 100.16 98.8913 100.172V99.9835C99.0298 99.952 99.1652 99.8701 99.2974 99.7379C99.436 99.6056 99.5682 99.3758 99.6941 99.0483L101.857 93.4565C101.933 93.4628 102.015 93.466 102.103 93.466C102.191 93.466 102.273 93.4628 102.348 93.4565ZM103.17 97.452V97.6409H100.355L100.45 97.452H103.17ZM117.525 93.4849C117.5 93.7745 117.481 94.0579 117.469 94.335C117.462 94.6057 117.459 94.8135 117.459 94.9584C117.459 95.1032 117.462 95.2386 117.469 95.3645C117.475 95.4905 117.481 95.6007 117.487 95.6951H117.27C117.182 95.1914 117.075 94.7978 116.949 94.5144C116.823 94.2248 116.656 94.017 116.448 93.891C116.247 93.7651 115.979 93.7021 115.645 93.7021H115.343V99.0861C115.343 99.3443 115.365 99.5364 115.409 99.6623C115.46 99.7883 115.557 99.8733 115.702 99.9173C115.847 99.9551 116.058 99.9772 116.335 99.9835V100.172C116.146 100.16 115.901 100.153 115.598 100.153C115.296 100.147 114.987 100.144 114.673 100.144C114.345 100.144 114.037 100.147 113.747 100.153C113.464 100.153 113.234 100.16 113.057 100.172V99.9835C113.328 99.9772 113.536 99.9551 113.681 99.9173C113.826 99.8733 113.923 99.7883 113.974 99.6623C114.024 99.5364 114.049 99.3443 114.049 99.0861V93.7021H113.737C113.41 93.7021 113.142 93.7651 112.935 93.891C112.727 94.017 112.56 94.2248 112.434 94.5144C112.308 94.7978 112.204 95.1914 112.122 95.6951H111.905C111.918 95.6007 111.924 95.4905 111.924 95.3645C111.93 95.2386 111.933 95.1032 111.933 94.9584C111.933 94.8135 111.927 94.6057 111.914 94.335C111.908 94.0579 111.892 93.7745 111.867 93.4849C112.144 93.4912 112.45 93.4975 112.783 93.5037C113.117 93.51 113.451 93.5132 113.785 93.5132C114.118 93.5132 114.424 93.5132 114.701 93.5132C114.972 93.5132 115.274 93.5132 115.608 93.5132C115.941 93.5132 116.275 93.51 116.609 93.5037C116.943 93.4975 117.248 93.4912 117.525 93.4849ZM130.044 93.4849C130.019 93.743 130 93.9949 129.987 94.2405C129.981 94.4798 129.978 94.6624 129.978 94.7884C129.978 94.908 129.981 95.0245 129.987 95.1378C129.994 95.2449 130 95.3362 130.006 95.4118H129.789C129.739 94.9773 129.657 94.6372 129.543 94.3916C129.43 94.1398 129.276 93.9634 129.08 93.8627C128.892 93.7556 128.643 93.7021 128.334 93.7021H127.815C127.626 93.7021 127.481 93.7178 127.38 93.7493C127.279 93.7808 127.21 93.8469 127.172 93.9477C127.141 94.0484 127.125 94.2027 127.125 94.4105V99.2467C127.125 99.4482 127.141 99.6025 127.172 99.7095C127.21 99.8103 127.279 99.8764 127.38 99.9079C127.481 99.9394 127.626 99.9551 127.815 99.9551H128.353C128.674 99.9551 128.942 99.8953 129.156 99.7757C129.376 99.656 129.553 99.4608 129.685 99.19C129.817 98.913 129.915 98.5351 129.978 98.0566H130.195C130.176 98.2518 130.167 98.5036 130.167 98.8122C130.167 98.9444 130.17 99.1365 130.176 99.3884C130.189 99.6403 130.208 99.9016 130.233 100.172C129.912 100.16 129.55 100.153 129.147 100.153C128.744 100.147 128.385 100.144 128.07 100.144C127.925 100.144 127.733 100.144 127.494 100.144C127.261 100.144 127.006 100.147 126.728 100.153C126.458 100.153 126.181 100.157 125.897 100.163C125.62 100.163 125.356 100.166 125.104 100.172V99.9835C125.312 99.9709 125.466 99.9457 125.567 99.9079C125.674 99.8701 125.743 99.7946 125.774 99.6812C125.812 99.5679 125.831 99.3978 125.831 99.1711V94.4861C125.831 94.2531 125.812 94.0831 125.774 93.976C125.743 93.8627 125.674 93.7871 125.567 93.7493C125.466 93.7053 125.312 93.6801 125.104 93.6738V93.4849C125.356 93.4912 125.62 93.4975 125.897 93.5037C126.181 93.5037 126.458 93.5069 126.728 93.5132C127.006 93.5132 127.261 93.5132 127.494 93.5132C127.733 93.5132 127.925 93.5132 128.07 93.5132C128.359 93.5132 128.687 93.5132 129.052 93.5132C129.424 93.5069 129.754 93.4975 130.044 93.4849ZM128.523 96.7153C128.523 96.7153 128.523 96.7468 128.523 96.8097C128.523 96.8727 128.523 96.9042 128.523 96.9042H126.842C126.842 96.9042 126.842 96.8727 126.842 96.8097C126.842 96.7468 126.842 96.7153 126.842 96.7153H128.523ZM128.797 95.4684C128.772 95.8274 128.759 96.1013 128.759 96.2902C128.766 96.4791 128.769 96.6523 128.769 96.8097C128.769 96.9672 128.772 97.1403 128.778 97.3292C128.784 97.5181 128.8 97.7921 128.825 98.151H128.608C128.577 97.9369 128.526 97.7354 128.457 97.5465C128.394 97.3513 128.29 97.197 128.145 97.0836C128.007 96.964 127.805 96.9042 127.541 96.9042V96.7153C127.736 96.7153 127.893 96.6743 128.013 96.5925C128.139 96.5106 128.24 96.4067 128.315 96.2808C128.391 96.1485 128.448 96.0131 128.485 95.8746C128.529 95.7298 128.561 95.5944 128.58 95.4684H128.797ZM155.143 93.4849V93.6738C154.942 93.6801 154.788 93.7053 154.681 93.7493C154.574 93.7871 154.501 93.8627 154.463 93.976C154.432 94.0831 154.416 94.2531 154.416 94.4861V99.1711C154.416 99.3978 154.435 99.5679 154.473 99.6812C154.511 99.7946 154.58 99.8701 154.681 99.9079C154.788 99.9457 154.942 99.9709 155.143 99.9835V100.172C154.98 100.16 154.772 100.153 154.52 100.153C154.268 100.147 154.013 100.144 153.755 100.144C153.472 100.144 153.204 100.147 152.952 100.153C152.706 100.153 152.508 100.16 152.357 100.172V99.9835C152.571 99.9709 152.732 99.9457 152.839 99.9079C152.952 99.8701 153.028 99.7946 153.065 99.6812C153.103 99.5679 153.122 99.3978 153.122 99.1711V94.0327L153.188 94.0421L150.846 100.201H150.695L148.201 94.0894V98.7744C148.201 99.0767 148.22 99.3128 148.258 99.4828C148.295 99.6466 148.377 99.7662 148.503 99.8418C148.635 99.911 148.834 99.9583 149.098 99.9835V100.172C148.979 100.16 148.824 100.153 148.635 100.153C148.446 100.147 148.267 100.144 148.097 100.144C147.946 100.144 147.792 100.147 147.634 100.153C147.483 100.153 147.357 100.16 147.256 100.172V99.9835C147.464 99.9583 147.618 99.911 147.719 99.8418C147.826 99.7725 147.895 99.6592 147.927 99.5017C147.965 99.3443 147.984 99.1271 147.984 98.85V94.4861C147.984 94.2531 147.965 94.0831 147.927 93.976C147.895 93.8627 147.826 93.7871 147.719 93.7493C147.618 93.7053 147.464 93.6801 147.256 93.6738V93.4849C147.357 93.4912 147.483 93.4975 147.634 93.5037C147.792 93.51 147.946 93.5132 148.097 93.5132C148.33 93.5132 148.557 93.51 148.777 93.5037C148.997 93.4975 149.193 93.4912 149.363 93.4849L151.394 98.5572L151.186 98.7272L153.16 93.5132C153.254 93.5132 153.352 93.5132 153.453 93.5132C153.56 93.5132 153.66 93.5132 153.755 93.5132C154.013 93.5132 154.268 93.51 154.52 93.5037C154.772 93.4975 154.98 93.4912 155.143 93.4849ZM165.819 93.4565L168.114 99.3789C168.208 99.6056 168.309 99.7631 168.416 99.8512C168.53 99.9331 168.634 99.9772 168.728 99.9835V100.172C168.564 100.16 168.366 100.153 168.133 100.153C167.906 100.147 167.673 100.144 167.434 100.144C167.157 100.144 166.899 100.147 166.659 100.153C166.42 100.153 166.225 100.16 166.074 100.172V99.9835C166.395 99.9709 166.6 99.9173 166.688 99.8229C166.776 99.7221 166.757 99.5112 166.631 99.19L164.969 94.7033L165.139 94.4955L163.627 98.4155C163.508 98.7303 163.435 98.9885 163.41 99.19C163.385 99.3915 163.401 99.549 163.457 99.6623C163.514 99.7757 163.608 99.8575 163.741 99.9079C163.873 99.952 164.037 99.9772 164.232 99.9835V100.172C164.03 100.16 163.835 100.153 163.646 100.153C163.457 100.147 163.268 100.144 163.079 100.144C162.941 100.144 162.809 100.147 162.683 100.153C162.563 100.153 162.456 100.16 162.362 100.172V99.9835C162.5 99.952 162.636 99.8701 162.768 99.7379C162.906 99.6056 163.039 99.3758 163.165 99.0483L165.328 93.4565C165.403 93.4628 165.485 93.466 165.573 93.466C165.661 93.466 165.743 93.4628 165.819 93.4565ZM166.641 97.452V97.6409H163.826L163.92 97.452H166.641ZM178.625 93.4849C179.834 93.4849 180.728 93.7682 181.307 94.335C181.893 94.8954 182.186 95.7014 182.186 96.7531C182.186 97.4394 182.041 98.0408 181.751 98.5572C181.468 99.0672 181.055 99.464 180.514 99.7473C179.972 100.031 179.314 100.172 178.54 100.172C178.445 100.172 178.316 100.169 178.152 100.163C177.995 100.157 177.828 100.153 177.652 100.153C177.482 100.147 177.324 100.144 177.179 100.144C176.921 100.144 176.669 100.147 176.424 100.153C176.178 100.153 175.977 100.16 175.819 100.172V99.9835C176.027 99.9709 176.181 99.9457 176.282 99.9079C176.389 99.8701 176.458 99.7946 176.49 99.6812C176.528 99.5679 176.547 99.3978 176.547 99.1711V94.4861C176.547 94.2531 176.528 94.0831 176.49 93.976C176.458 93.8627 176.389 93.7871 176.282 93.7493C176.181 93.7053 176.027 93.6801 175.819 93.6738V93.4849C175.977 93.4912 176.178 93.5006 176.424 93.5132C176.669 93.5195 176.915 93.5195 177.161 93.5132C177.387 93.5069 177.642 93.5006 177.926 93.4943C178.209 93.488 178.442 93.4849 178.625 93.4849ZM178.54 93.6549C178.25 93.6549 178.061 93.7084 177.973 93.8155C177.885 93.9225 177.841 94.1398 177.841 94.4672V99.19C177.841 99.5175 177.885 99.7347 177.973 99.8418C178.067 99.9488 178.259 100.002 178.549 100.002C179.135 100.002 179.591 99.8796 179.919 99.634C180.252 99.3821 180.485 99.0169 180.618 98.5383C180.756 98.0597 180.825 97.4772 180.825 96.7908C180.825 96.0856 180.75 95.5031 180.599 95.0434C180.454 94.5774 180.215 94.2311 179.881 94.0044C179.547 93.7714 179.1 93.6549 178.54 93.6549ZM194.824 93.4849C194.799 93.743 194.78 93.9949 194.767 94.2405C194.761 94.4798 194.758 94.6624 194.758 94.7884C194.758 94.908 194.761 95.0245 194.767 95.1378C194.774 95.2449 194.78 95.3362 194.786 95.4118H194.569C194.519 94.9773 194.437 94.6372 194.324 94.3916C194.21 94.1398 194.056 93.9634 193.861 93.8627C193.672 93.7556 193.423 93.7021 193.114 93.7021H192.595C192.406 93.7021 192.261 93.7178 192.16 93.7493C192.06 93.7808 191.99 93.8469 191.953 93.9477C191.921 94.0484 191.905 94.2027 191.905 94.4105V99.2467C191.905 99.4482 191.921 99.6025 191.953 99.7095C191.99 99.8103 192.06 99.8764 192.16 99.9079C192.261 99.9394 192.406 99.9551 192.595 99.9551H193.133C193.455 99.9551 193.722 99.8953 193.936 99.7757C194.157 99.656 194.333 99.4608 194.465 99.19C194.597 98.913 194.695 98.5351 194.758 98.0566H194.975C194.956 98.2518 194.947 98.5036 194.947 98.8122C194.947 98.9444 194.95 99.1365 194.956 99.3884C194.969 99.6403 194.988 99.9016 195.013 100.172C194.692 100.16 194.33 100.153 193.927 100.153C193.524 100.147 193.165 100.144 192.85 100.144C192.705 100.144 192.513 100.144 192.274 100.144C192.041 100.144 191.786 100.147 191.509 100.153C191.238 100.153 190.961 100.157 190.677 100.163C190.4 100.163 190.136 100.166 189.884 100.172V99.9835C190.092 99.9709 190.246 99.9457 190.347 99.9079C190.454 99.8701 190.523 99.7946 190.555 99.6812C190.592 99.5679 190.611 99.3978 190.611 99.1711V94.4861C190.611 94.2531 190.592 94.0831 190.555 93.976C190.523 93.8627 190.454 93.7871 190.347 93.7493C190.246 93.7053 190.092 93.6801 189.884 93.6738V93.4849C190.136 93.4912 190.4 93.4975 190.677 93.5037C190.961 93.5037 191.238 93.5069 191.509 93.5132C191.786 93.5132 192.041 93.5132 192.274 93.5132C192.513 93.5132 192.705 93.5132 192.85 93.5132C193.14 93.5132 193.467 93.5132 193.832 93.5132C194.204 93.5069 194.534 93.4975 194.824 93.4849ZM193.303 96.7153C193.303 96.7153 193.303 96.7468 193.303 96.8097C193.303 96.8727 193.303 96.9042 193.303 96.9042H191.622C191.622 96.9042 191.622 96.8727 191.622 96.8097C191.622 96.7468 191.622 96.7153 191.622 96.7153H193.303ZM193.577 95.4684C193.552 95.8274 193.54 96.1013 193.54 96.2902C193.546 96.4791 193.549 96.6523 193.549 96.8097C193.549 96.9672 193.552 97.1403 193.558 97.3292C193.565 97.5181 193.58 97.7921 193.606 98.151H193.388C193.357 97.9369 193.307 97.7354 193.237 97.5465C193.174 97.3513 193.07 97.197 192.926 97.0836C192.787 96.964 192.586 96.9042 192.321 96.9042V96.7153C192.516 96.7153 192.674 96.6743 192.793 96.5925C192.919 96.5106 193.02 96.4067 193.096 96.2808C193.171 96.1485 193.228 96.0131 193.266 95.8746C193.31 95.7298 193.341 95.5944 193.36 95.4684H193.577Z" fill="black"/>
<path d="M216.967 93.4849C216.942 93.743 216.923 93.9949 216.91 94.2405C216.904 94.4798 216.901 94.6624 216.901 94.7884C216.901 94.908 216.904 95.0245 216.91 95.1378C216.917 95.2449 216.923 95.3362 216.929 95.4118H216.712C216.662 94.9773 216.58 94.6372 216.467 94.3916C216.353 94.1398 216.199 93.9634 216.004 93.8627C215.815 93.7556 215.566 93.7021 215.257 93.7021H214.738C214.549 93.7021 214.404 93.7178 214.303 93.7493C214.203 93.7808 214.133 93.8469 214.096 93.9477C214.064 94.0484 214.048 94.2027 214.048 94.4105V99.2467C214.048 99.4482 214.064 99.6025 214.096 99.7095C214.133 99.8103 214.203 99.8764 214.303 99.9079C214.404 99.9394 214.549 99.9551 214.738 99.9551H215.276C215.598 99.9551 215.865 99.8953 216.079 99.7757C216.3 99.656 216.476 99.4608 216.608 99.19C216.74 98.913 216.838 98.5351 216.901 98.0566H217.118C217.099 98.2518 217.09 98.5036 217.09 98.8122C217.09 98.9444 217.093 99.1365 217.099 99.3884C217.112 99.6403 217.131 99.9016 217.156 100.172C216.835 100.16 216.473 100.153 216.07 100.153C215.667 100.147 215.308 100.144 214.993 100.144C214.848 100.144 214.656 100.144 214.417 100.144C214.184 100.144 213.929 100.147 213.652 100.153C213.381 100.153 213.104 100.157 212.821 100.163C212.543 100.163 212.279 100.166 212.027 100.172V99.9835C212.235 99.9709 212.389 99.9457 212.49 99.9079C212.597 99.8701 212.666 99.7946 212.698 99.6812C212.736 99.5679 212.754 99.3978 212.754 99.1711V94.4861C212.754 94.2531 212.736 94.0831 212.698 93.976C212.666 93.8627 212.597 93.7871 212.49 93.7493C212.389 93.7053 212.235 93.6801 212.027 93.6738V93.4849C212.279 93.4912 212.543 93.4975 212.821 93.5037C213.104 93.5037 213.381 93.5069 213.652 93.5132C213.929 93.5132 214.184 93.5132 214.417 93.5132C214.656 93.5132 214.848 93.5132 214.993 93.5132C215.283 93.5132 215.61 93.5132 215.975 93.5132C216.347 93.5069 216.677 93.4975 216.967 93.4849ZM215.446 96.7153C215.446 96.7153 215.446 96.7468 215.446 96.8097C215.446 96.8727 215.446 96.9042 215.446 96.9042H213.765C213.765 96.9042 213.765 96.8727 213.765 96.8097C213.765 96.7468 213.765 96.7153 213.765 96.7153H215.446ZM215.72 95.4684C215.695 95.8274 215.683 96.1013 215.683 96.2902C215.689 96.4791 215.692 96.6523 215.692 96.8097C215.692 96.9672 215.695 97.1403 215.701 97.3292C215.708 97.5181 215.723 97.7921 215.749 98.151H215.531C215.5 97.9369 215.45 97.7354 215.38 97.5465C215.317 97.3513 215.213 97.197 215.069 97.0836C214.93 96.964 214.729 96.9042 214.464 96.9042V96.7153C214.659 96.7153 214.817 96.6743 214.936 96.5925C215.062 96.5106 215.163 96.4067 215.239 96.2808C215.314 96.1485 215.371 96.0131 215.409 95.8746C215.453 95.7298 215.484 95.5944 215.503 95.4684H215.72ZM227.915 93.4565L230.21 99.3789C230.304 99.6056 230.405 99.7631 230.512 99.8512C230.626 99.9331 230.729 99.9772 230.824 99.9835V100.172C230.66 100.16 230.462 100.153 230.229 100.153C230.002 100.147 229.769 100.144 229.53 100.144C229.253 100.144 228.995 100.147 228.755 100.153C228.516 100.153 228.321 100.16 228.17 100.172V99.9835C228.491 99.9709 228.696 99.9173 228.784 99.8229C228.872 99.7221 228.853 99.5112 228.727 99.19L227.065 94.7033L227.235 94.4955L225.723 98.4155C225.604 98.7303 225.531 98.9885 225.506 99.19C225.481 99.3915 225.497 99.549 225.553 99.6623C225.61 99.7757 225.704 99.8575 225.837 99.9079C225.969 99.952 226.133 99.9772 226.328 99.9835V100.172C226.126 100.16 225.931 100.153 225.742 100.153C225.553 100.147 225.364 100.144 225.175 100.144C225.037 100.144 224.905 100.147 224.779 100.153C224.659 100.153 224.552 100.16 224.458 100.172V99.9835C224.596 99.952 224.731 99.8701 224.864 99.7379C225.002 99.6056 225.135 99.3758 225.26 99.0483L227.424 93.4565C227.499 93.4628 227.581 93.466 227.669 93.466C227.757 93.466 227.839 93.4628 227.915 93.4565ZM228.736 97.452V97.6409H225.922L226.016 97.452H228.736ZM240.348 93.3715C240.7 93.3715 240.971 93.4093 241.16 93.4849C241.349 93.5604 241.513 93.6423 241.651 93.7304C241.727 93.7745 241.787 93.8092 241.831 93.8343C241.881 93.8532 241.928 93.8627 241.972 93.8627C242.035 93.8627 242.079 93.828 242.105 93.7588C242.136 93.6895 242.161 93.5856 242.18 93.4471H242.397C242.391 93.5667 242.382 93.7053 242.369 93.8627C242.363 94.0201 242.357 94.2311 242.35 94.4955C242.35 94.7537 242.35 95.0969 242.35 95.5251H242.133C242.114 95.204 242.042 94.8954 241.916 94.5994C241.796 94.3035 241.623 94.061 241.396 93.8721C241.176 93.6769 240.892 93.5793 240.546 93.5793C240.238 93.5793 239.979 93.6706 239.772 93.8532C239.57 94.0359 239.469 94.2814 239.469 94.59C239.469 94.8545 239.535 95.078 239.668 95.2606C239.8 95.437 239.986 95.6101 240.225 95.7801C240.471 95.9439 240.76 96.1328 241.094 96.3469C241.403 96.5484 241.68 96.7499 241.925 96.9514C242.171 97.1466 242.363 97.3639 242.501 97.6032C242.646 97.8425 242.719 98.1353 242.719 98.4816C242.719 98.8909 242.618 99.231 242.416 99.5017C242.215 99.7725 241.944 99.974 241.604 100.106C241.264 100.238 240.892 100.305 240.489 100.305C240.118 100.305 239.822 100.267 239.602 100.191C239.387 100.116 239.202 100.037 239.044 99.9551C238.906 99.867 238.799 99.8229 238.723 99.8229C238.66 99.8229 238.613 99.8575 238.581 99.9268C238.556 99.9961 238.534 100.1 238.515 100.238H238.298C238.311 100.094 238.317 99.9236 238.317 99.7284C238.323 99.5332 238.326 99.2813 238.326 98.9728C238.333 98.6579 238.336 98.2612 238.336 97.7826H238.553C238.578 98.1856 238.648 98.5635 238.761 98.9161C238.881 99.2624 239.06 99.5427 239.299 99.7568C239.545 99.9709 239.869 100.078 240.272 100.078C240.493 100.078 240.691 100.04 240.867 99.9646C241.05 99.8827 241.195 99.7599 241.302 99.5962C241.409 99.4262 241.462 99.2121 241.462 98.9539C241.462 98.6957 241.403 98.469 241.283 98.2738C241.163 98.0786 240.996 97.896 240.782 97.726C240.568 97.5559 240.316 97.3828 240.027 97.2064C239.731 97.0175 239.454 96.8255 239.195 96.6303C238.937 96.435 238.729 96.2146 238.572 95.9691C238.421 95.7172 238.345 95.4149 238.345 95.0623C238.345 94.6719 238.44 94.3539 238.629 94.1083C238.818 93.8564 239.063 93.6706 239.365 93.551C239.674 93.4313 240.001 93.3715 240.348 93.3715ZM255.805 93.4849V93.6738C255.679 93.7116 255.547 93.8092 255.409 93.9666C255.27 94.1177 255.119 94.3539 254.955 94.675L253.132 98.2927H252.783L250.572 94.2122C250.453 93.9918 250.349 93.8501 250.261 93.7871C250.173 93.7178 250.094 93.6832 250.025 93.6832V93.4849C250.176 93.4912 250.333 93.5006 250.497 93.5132C250.667 93.5195 250.85 93.5226 251.045 93.5226C251.297 93.5226 251.567 93.5195 251.857 93.5132C252.147 93.5069 252.417 93.4975 252.669 93.4849V93.6832C252.512 93.6832 252.37 93.6958 252.244 93.721C252.118 93.7462 252.033 93.7997 251.989 93.8816C251.945 93.9634 251.961 94.0831 252.037 94.2405L253.567 97.1687L253.34 97.4331L254.417 95.2984C254.625 94.8828 254.732 94.5585 254.738 94.3255C254.751 94.0925 254.684 93.9288 254.54 93.8343C254.401 93.7336 254.203 93.6801 253.945 93.6738V93.4849C254.152 93.4912 254.348 93.4975 254.53 93.5037C254.719 93.51 254.905 93.5132 255.087 93.5132C255.239 93.5132 255.371 93.51 255.484 93.5037C255.604 93.4975 255.711 93.4912 255.805 93.4849ZM253.708 96.9609V99.1711C253.708 99.3978 253.727 99.5679 253.765 99.6812C253.803 99.7946 253.872 99.8701 253.973 99.9079C254.08 99.9457 254.234 99.9709 254.436 99.9835V100.172C254.278 100.16 254.074 100.153 253.822 100.153C253.57 100.147 253.318 100.144 253.066 100.144C252.795 100.144 252.534 100.147 252.282 100.153C252.037 100.153 251.838 100.16 251.687 100.172V99.9835C251.895 99.9709 252.049 99.9457 252.15 99.9079C252.257 99.8701 252.326 99.7946 252.358 99.6812C252.395 99.5679 252.414 99.3978 252.414 99.1711V97.2348L253.132 97.8204L253.708 96.9609Z" fill="#DB1924"/>
<path d="M115.509 45.4474H125.167L80.2289 0L48.666 31.9294H53.1863V39.6601H58.3605V29.5222L80.2289 7.72615L115.509 43.0809V45.4474Z" fill="black"/>
<path d="M132.382 39.5628V37.1963L103.663 7.72615L97.7418 13.6265L93.9658 9.80755L103.663 0L142.038 39.5628H132.382Z" fill="black"/>
<path d="M79.392 27.554H73.6816V33.2643H79.392V27.554Z" fill="black"/>
<path d="M86.7786 27.554H81.0683V33.2643H86.7786V27.554Z" fill="black"/>
<path d="M79.3919 34.9408H73.6815V40.6511H79.3919V34.9408Z" fill="black"/>
<path d="M86.7786 34.9408H81.0683V40.6511H86.7786V34.9408Z" fill="black"/>
<path d="M195.56 59.3431V58.9269C196.031 58.8991 196.385 58.8436 196.621 58.7603C196.857 58.6771 197.01 58.5106 197.079 58.2608C197.162 58.011 197.204 57.6364 197.204 57.1368V46.813C197.204 46.2996 197.162 45.9249 197.079 45.689C197.01 45.4393 196.85 45.2727 196.6 45.1895C196.364 45.0924 196.017 45.0368 195.56 45.023V44.6067C195.906 44.6206 196.337 44.6344 196.85 44.6483C197.377 44.6622 197.898 44.6691 198.411 44.6691C198.994 44.6691 199.535 44.6622 200.035 44.6483C200.534 44.6344 200.937 44.6206 201.242 44.6067V45.023C200.784 45.0368 200.437 45.0924 200.201 45.1895C199.965 45.2727 199.806 45.4393 199.722 45.689C199.639 45.9249 199.598 46.2996 199.598 46.813V57.1368C199.598 57.6364 199.639 58.011 199.722 58.2608C199.806 58.5106 199.965 58.6771 200.201 58.7603C200.437 58.8436 200.784 58.8991 201.242 58.9269V59.3431C200.937 59.3154 200.534 59.3015 200.035 59.3015C199.535 59.2876 198.994 59.2807 198.411 59.2807C197.898 59.2807 197.377 59.2876 196.85 59.3015C196.337 59.3015 195.906 59.3154 195.56 59.3431ZM186.818 59.3431V58.9269C187.289 58.8991 187.643 58.8436 187.879 58.7603C188.115 58.6771 188.268 58.5106 188.337 58.2608C188.42 58.011 188.462 57.6364 188.462 57.1368V46.813C188.462 46.2996 188.42 45.9249 188.337 45.689C188.268 45.4393 188.108 45.2727 187.858 45.1895C187.622 45.0924 187.276 45.0368 186.818 45.023V44.6067C187.137 44.6206 187.546 44.6344 188.046 44.6483C188.559 44.6622 189.107 44.6691 189.69 44.6691C190.217 44.6691 190.731 44.6622 191.23 44.6483C191.744 44.6344 192.167 44.6206 192.5 44.6067V45.023C192.042 45.0368 191.695 45.0924 191.459 45.1895C191.223 45.2727 191.064 45.4393 190.98 45.689C190.897 45.9249 190.856 46.2996 190.856 46.813V57.1368C190.856 57.6364 190.897 58.011 190.98 58.2608C191.064 58.5106 191.223 58.6771 191.459 58.7603C191.695 58.8436 192.042 58.8991 192.5 58.9269V59.3431C192.167 59.3154 191.744 59.3015 191.23 59.3015C190.731 59.2876 190.217 59.2807 189.69 59.2807C189.107 59.2807 188.559 59.2876 188.046 59.3015C187.546 59.3015 187.137 59.3154 186.818 59.3431ZM189.919 52.1414V51.7251H198.141V52.1414H189.919ZM209.81 44.3153C211.17 44.3153 212.364 44.6136 213.391 45.2103C214.431 45.807 215.236 46.6673 215.805 47.7913C216.374 48.9013 216.658 50.2543 216.658 51.85C216.658 53.4042 216.367 54.764 215.784 55.9296C215.201 57.0952 214.39 58.0041 213.349 58.6563C212.308 59.3084 211.122 59.6345 209.79 59.6345C208.416 59.6345 207.216 59.3362 206.189 58.7395C205.162 58.1429 204.364 57.2825 203.795 56.1586C203.226 55.0346 202.942 53.6817 202.942 52.0998C202.942 50.5457 203.233 49.1858 203.816 48.0202C204.413 46.8546 205.224 45.9457 206.251 45.2936C207.278 44.6414 208.464 44.3153 209.81 44.3153ZM209.727 44.6899C208.867 44.6899 208.118 45.0022 207.479 45.6266C206.841 46.251 206.348 47.1113 206.001 48.2075C205.655 49.3038 205.481 50.5734 205.481 52.0165C205.481 53.4874 205.675 54.771 206.064 55.8672C206.452 56.9495 206.98 57.789 207.646 58.3857C208.312 58.9685 209.054 59.2599 209.873 59.2599C210.733 59.2599 211.476 58.9477 212.1 58.3232C212.738 57.6988 213.231 56.8385 213.578 55.7423C213.939 54.6322 214.119 53.3625 214.119 51.9333C214.119 50.4485 213.918 49.165 213.515 48.0827C213.127 47.0003 212.6 46.1678 211.934 45.585C211.281 44.9883 210.546 44.6899 209.727 44.6899ZM231.29 44.6067V45.023C230.832 45.0507 230.485 45.134 230.249 45.2727C230.013 45.4115 229.854 45.6405 229.77 45.9596C229.687 46.2649 229.645 46.702 229.645 47.2709V53.2862C229.645 54.2298 229.583 55.0693 229.458 55.8047C229.333 56.5402 229.111 57.1715 228.792 57.6988C228.445 58.2816 227.932 58.7534 227.252 59.1142C226.586 59.4611 225.788 59.6345 224.858 59.6345C224.192 59.6345 223.547 59.5582 222.922 59.4056C222.298 59.2529 221.75 58.9615 221.278 58.5314C220.862 58.1567 220.536 57.7474 220.3 57.3033C220.064 56.8593 219.904 56.3251 219.821 55.7007C219.738 55.0624 219.696 54.2784 219.696 53.3486V46.813C219.696 46.2996 219.655 45.9249 219.571 45.689C219.502 45.4393 219.349 45.2727 219.113 45.1895C218.878 45.0924 218.524 45.0368 218.052 45.023V44.6067C218.371 44.6206 218.78 44.6344 219.28 44.6483C219.793 44.6622 220.341 44.6691 220.924 44.6691C221.452 44.6691 221.972 44.6622 222.485 44.6483C223.013 44.6344 223.443 44.6206 223.776 44.6067V45.023C223.304 45.0368 222.943 45.0924 222.693 45.1895C222.458 45.2727 222.298 45.4393 222.215 45.689C222.132 45.9249 222.09 46.2996 222.09 46.813V54.0147C222.09 54.7224 222.125 55.3746 222.194 55.9712C222.277 56.5679 222.423 57.0883 222.631 57.5323C222.853 57.9625 223.172 58.3024 223.588 58.5522C224.019 58.7881 224.574 58.906 225.254 58.906C226.28 58.906 227.071 58.6771 227.626 58.2192C228.195 57.7474 228.591 57.1091 228.813 56.3043C229.049 55.4856 229.167 54.5559 229.167 53.5152V47.3542C229.167 46.7575 229.111 46.2996 229 45.9804C228.889 45.6613 228.695 45.4323 228.417 45.2936C228.14 45.1409 227.744 45.0507 227.231 45.023V44.6067C227.495 44.6206 227.835 44.6344 228.251 44.6483C228.667 44.6622 229.049 44.6691 229.396 44.6691C229.756 44.6691 230.103 44.6622 230.436 44.6483C230.783 44.6344 231.068 44.6206 231.29 44.6067ZM237.297 44.3569C238.032 44.3569 238.594 44.4402 238.983 44.6067C239.371 44.7732 239.711 44.9536 240.002 45.1479C240.169 45.245 240.301 45.3213 240.398 45.3768C240.509 45.4184 240.613 45.4393 240.71 45.4393C240.849 45.4393 240.946 45.3629 241.002 45.2103C241.071 45.0577 241.126 44.8287 241.168 44.5234H241.647C241.633 44.7732 241.612 45.0715 241.584 45.4184C241.57 45.7515 241.557 46.1955 241.543 46.7505C241.543 47.3056 241.543 48.0341 241.543 48.936H241.064C241.022 48.2561 240.87 47.597 240.606 46.9587C240.356 46.3204 239.982 45.8 239.482 45.3976C238.996 44.9952 238.372 44.794 237.609 44.794C236.901 44.794 236.311 45.0091 235.84 45.4393C235.382 45.8555 235.153 46.4106 235.153 47.1044C235.153 47.7149 235.305 48.2284 235.611 48.6446C235.916 49.047 236.332 49.4286 236.86 49.7894C237.401 50.1363 238.011 50.5249 238.691 50.955C239.385 51.3991 240.009 51.8431 240.564 52.2871C241.119 52.7173 241.557 53.196 241.876 53.7233C242.195 54.2506 242.354 54.8889 242.354 55.6382C242.354 56.5402 242.139 57.2895 241.709 57.8861C241.293 58.4689 240.731 58.906 240.023 59.1974C239.316 59.4888 238.539 59.6345 237.692 59.6345C236.915 59.6345 236.298 59.5513 235.84 59.3848C235.382 59.2183 234.993 59.0448 234.674 58.8644C234.369 58.6701 234.133 58.573 233.966 58.573C233.828 58.573 233.723 58.6493 233.654 58.802C233.599 58.9546 233.55 59.1836 233.508 59.4888H233.03C233.057 59.1836 233.071 58.8297 233.071 58.4273C233.085 58.011 233.092 57.4699 233.092 56.8038C233.106 56.1378 233.113 55.2982 233.113 54.2853H233.592C233.647 55.1456 233.8 55.9504 234.05 56.6997C234.313 57.449 234.709 58.0527 235.236 58.5106C235.777 58.9546 236.492 59.1766 237.38 59.1766C237.852 59.1766 238.289 59.0864 238.691 58.906C239.094 58.7257 239.42 58.4412 239.669 58.0527C239.919 57.6641 240.044 57.1646 240.044 56.554C240.044 55.9851 239.905 55.4856 239.628 55.0554C239.364 54.6253 238.989 54.2298 238.504 53.869C238.032 53.4943 237.477 53.1128 236.839 52.7242C236.187 52.3079 235.576 51.8917 235.007 51.4754C234.438 51.0591 233.98 50.5734 233.633 50.0184C233.3 49.4633 233.134 48.8042 233.134 48.041C233.134 47.1946 233.328 46.5008 233.717 45.9596C234.119 45.4184 234.632 45.016 235.257 44.7524C235.895 44.4887 236.575 44.3569 237.297 44.3569ZM254.774 44.6067C254.719 45.134 254.677 45.6474 254.649 46.1469C254.635 46.6326 254.628 47.0073 254.628 47.2709C254.628 47.5345 254.635 47.7843 254.649 48.0202C254.663 48.2561 254.677 48.4504 254.691 48.603H254.212C254.115 47.7149 253.962 47.0142 253.754 46.5008C253.56 45.9874 253.262 45.6266 252.859 45.4184C252.471 45.1964 251.922 45.0854 251.215 45.0854H249.779C249.335 45.0854 248.995 45.127 248.759 45.2103C248.537 45.2797 248.384 45.4323 248.301 45.6682C248.218 45.8902 248.176 46.2441 248.176 46.7297V57.2201C248.176 57.6919 248.218 58.0457 248.301 58.2816C248.384 58.5175 248.537 58.6771 248.759 58.7603C248.995 58.8297 249.335 58.8644 249.779 58.8644H251.132C251.922 58.8644 252.547 58.7395 253.005 58.4898C253.477 58.24 253.83 57.8306 254.066 57.2617C254.316 56.6928 254.503 55.9157 254.628 54.9305H255.107C255.065 55.3329 255.045 55.8602 255.045 56.5124C255.045 56.7899 255.052 57.1923 255.065 57.7196C255.093 58.2469 255.135 58.7881 255.19 59.3431C254.483 59.3154 253.685 59.3015 252.797 59.3015C251.909 59.2876 251.118 59.2807 250.424 59.2807C250.105 59.2807 249.695 59.2807 249.196 59.2807C248.696 59.2807 248.155 59.2876 247.572 59.3015C247.003 59.3015 246.421 59.3084 245.824 59.3223C245.241 59.3223 244.679 59.3293 244.138 59.3431V58.9269C244.61 58.8991 244.964 58.8436 245.199 58.7603C245.435 58.6771 245.588 58.5106 245.657 58.2608C245.741 58.011 245.782 57.6364 245.782 57.1368V46.813C245.782 46.2996 245.741 45.9249 245.657 45.689C245.588 45.4393 245.428 45.2727 245.179 45.1895C244.943 45.0924 244.596 45.0368 244.138 45.023V44.6067C244.679 44.6206 245.241 44.6344 245.824 44.6483C246.421 44.6483 247.003 44.6553 247.572 44.6691C248.155 44.6691 248.696 44.6691 249.196 44.6691C249.695 44.6691 250.105 44.6691 250.424 44.6691C251.062 44.6691 251.784 44.6691 252.589 44.6691C253.407 44.6553 254.136 44.6344 254.774 44.6067ZM251.319 51.7251C251.319 51.7251 251.319 51.7945 251.319 51.9333C251.319 52.072 251.319 52.1414 251.319 52.1414H247.551C247.551 52.1414 247.551 52.072 247.551 51.9333C247.551 51.7945 247.551 51.7251 247.551 51.7251H251.319ZM251.922 48.9777C251.867 49.7686 251.839 50.3722 251.839 50.7885C251.853 51.2048 251.86 51.5864 251.86 51.9333C251.86 52.2802 251.867 52.6618 251.881 53.0781C251.895 53.4943 251.929 54.098 251.985 54.8889H251.506C251.437 54.431 251.347 53.9939 251.236 53.5776C251.125 53.1474 250.923 52.8005 250.632 52.5369C250.354 52.2732 249.917 52.1414 249.321 52.1414V51.7251C249.765 51.7251 250.112 51.6349 250.361 51.4546C250.625 51.2742 250.826 51.0383 250.965 50.7469C251.104 50.4555 251.201 50.1571 251.256 49.8519C251.326 49.5327 251.388 49.2413 251.444 48.9777H251.922ZM186.742 64.9808C187.031 64.9933 187.402 65.0059 187.855 65.0185C188.321 65.0311 188.78 65.0374 189.233 65.0374C189.837 65.0374 190.41 65.0311 190.951 65.0185C191.504 65.0059 191.894 64.9996 192.121 64.9996C193.53 64.9996 194.581 65.2764 195.273 65.8301C195.977 66.3837 196.33 67.0946 196.33 67.9628C196.33 68.4031 196.223 68.8435 196.009 69.2839C195.807 69.7117 195.474 70.1017 195.008 70.4541C194.543 70.7938 193.926 71.0643 193.159 71.2656V71.3034C194.216 71.4166 195.046 71.6431 195.65 71.9828C196.254 72.3225 196.682 72.7314 196.934 73.2096C197.185 73.6751 197.311 74.1658 197.311 74.6817C197.311 75.4241 197.122 76.072 196.745 76.6257C196.367 77.1667 195.82 77.5882 195.103 77.8902C194.398 78.1922 193.549 78.3431 192.555 78.3431C192.278 78.3431 191.857 78.3368 191.29 78.3243C190.737 78.2991 190.064 78.2865 189.271 78.2865C188.793 78.2865 188.321 78.2928 187.855 78.3054C187.402 78.3054 187.031 78.318 186.742 78.3431V77.9657C187.17 77.9405 187.491 77.8902 187.704 77.8147C187.918 77.7392 188.057 77.5882 188.12 77.3617C188.195 77.1352 188.233 76.7955 188.233 76.3426V66.9813C188.233 66.5158 188.195 66.1761 188.12 65.9622C188.057 65.7357 187.912 65.5847 187.686 65.5092C187.472 65.4211 187.157 65.3708 186.742 65.3582V64.9808ZM191.725 65.3582C191.183 65.3582 190.825 65.4652 190.649 65.6791C190.485 65.893 190.403 66.3271 190.403 66.9813V76.3426C190.403 76.7829 190.441 77.1164 190.517 77.3428C190.592 77.5693 190.724 77.7203 190.913 77.7958C191.114 77.8713 191.404 77.9091 191.781 77.9091C192.914 77.9091 193.731 77.6259 194.235 77.0597C194.751 76.481 195.008 75.6631 195.008 74.6062C195.008 73.6374 194.751 72.8887 194.235 72.3603C193.731 71.8318 192.895 71.5676 191.725 71.5676H189.894C189.894 71.5676 189.894 71.5173 189.894 71.4166C189.894 71.3034 189.894 71.2467 189.894 71.2467H191.517C192.209 71.2467 192.744 71.1083 193.121 70.8315C193.499 70.5421 193.757 70.1647 193.895 69.6991C194.033 69.221 194.103 68.7114 194.103 68.1704C194.103 67.2393 193.92 66.541 193.555 66.0754C193.19 65.5973 192.58 65.3582 191.725 65.3582ZM210.424 64.9808V65.3582C210.009 65.3834 209.694 65.4589 209.48 65.5847C209.267 65.7105 209.122 65.9181 209.046 66.2075C208.971 66.4843 208.933 66.8807 208.933 67.3966V72.851C208.933 73.7066 208.876 74.4678 208.763 75.1347C208.65 75.8015 208.449 76.374 208.159 76.8521C207.845 77.3806 207.379 77.8084 206.763 78.1355C206.159 78.4501 205.435 78.6074 204.592 78.6074C203.988 78.6074 203.403 78.5382 202.837 78.3998C202.271 78.2614 201.774 77.9971 201.346 77.6071C200.968 77.2674 200.673 76.8962 200.459 76.4935C200.245 76.0909 200.1 75.6065 200.025 75.0403C199.949 74.4615 199.912 73.7506 199.912 72.9076V66.9813C199.912 66.5158 199.874 66.1761 199.798 65.9622C199.735 65.7357 199.597 65.5847 199.383 65.5092C199.169 65.4211 198.848 65.3708 198.421 65.3582V64.9808C198.71 64.9933 199.081 65.0059 199.534 65.0185C200 65.0311 200.497 65.0374 201.025 65.0374C201.503 65.0374 201.975 65.0311 202.441 65.0185C202.919 65.0059 203.309 64.9933 203.611 64.9808V65.3582C203.183 65.3708 202.856 65.4211 202.629 65.5092C202.415 65.5847 202.271 65.7357 202.195 65.9622C202.12 66.1761 202.082 66.5158 202.082 66.9813V73.5115C202.082 74.1532 202.113 74.7446 202.176 75.2856C202.252 75.8267 202.384 76.2985 202.573 76.7012C202.774 77.0912 203.063 77.3995 203.441 77.6259C203.831 77.8398 204.334 77.9468 204.951 77.9468C205.882 77.9468 206.599 77.7392 207.102 77.324C207.618 76.8962 207.977 76.3174 208.178 75.5876C208.392 74.8453 208.499 74.0023 208.499 73.0586V67.472C208.499 66.931 208.449 66.5158 208.348 66.2264C208.247 65.937 208.071 65.7294 207.82 65.6036C207.568 65.4652 207.209 65.3834 206.744 65.3582V64.9808C206.983 64.9933 207.291 65.0059 207.669 65.0185C208.046 65.0311 208.392 65.0374 208.707 65.0374C209.034 65.0374 209.348 65.0311 209.65 65.0185C209.965 65.0059 210.223 64.9933 210.424 64.9808ZM222.156 64.9808V65.3582C221.904 65.4211 221.646 65.5973 221.382 65.8867C221.13 66.1635 220.847 66.6039 220.533 67.2078L216.815 74.5873H216.305L211.889 66.434C211.637 65.981 211.423 65.6917 211.247 65.5658C211.083 65.44 210.932 65.3771 210.794 65.3771V64.9808C211.071 64.9933 211.36 65.0059 211.662 65.0185C211.964 65.0311 212.291 65.0374 212.643 65.0374C213.096 65.0374 213.587 65.0374 214.116 65.0374C214.644 65.0248 215.135 65.0059 215.588 64.9808V65.3771C215.273 65.3771 214.99 65.4086 214.738 65.4715C214.499 65.5344 214.336 65.6602 214.248 65.8489C214.172 66.0251 214.223 66.283 214.399 66.6227L217.513 72.6056L217.211 72.9265L219.532 68.3025C219.922 67.535 220.117 66.9436 220.117 66.5284C220.13 66.1006 219.992 65.8049 219.702 65.6413C219.425 65.4652 219.023 65.3708 218.494 65.3582V64.9808C218.884 64.9933 219.268 65.0059 219.646 65.0185C220.023 65.0311 220.382 65.0374 220.721 65.0374C221.036 65.0374 221.306 65.0311 221.533 65.0185C221.759 65.0059 221.967 64.9933 222.156 64.9808ZM217.815 72.2659V76.3426C217.815 76.7955 217.853 77.1352 217.928 77.3617C218.004 77.5882 218.148 77.7392 218.362 77.8147C218.576 77.8902 218.891 77.9405 219.306 77.9657V78.3431C219.004 78.318 218.62 78.3054 218.155 78.3054C217.689 78.2928 217.217 78.2865 216.739 78.2865C216.223 78.2865 215.732 78.2928 215.267 78.3054C214.801 78.3054 214.43 78.318 214.153 78.3431V77.9657C214.581 77.9405 214.902 77.8902 215.116 77.8147C215.33 77.7392 215.468 77.5882 215.531 77.3617C215.607 77.1352 215.644 76.7955 215.644 76.3426V72.4735L216.871 73.6437L217.815 72.2659ZM232.603 64.9808C232.553 65.4589 232.515 65.9244 232.49 66.3774C232.477 66.8178 232.471 67.1575 232.471 67.3966C232.471 67.6356 232.477 67.8621 232.49 68.076C232.503 68.2899 232.515 68.4661 232.528 68.6045H232.094C232.006 67.7992 231.867 67.1638 231.679 66.6982C231.502 66.2327 231.232 65.9056 230.867 65.7168C230.515 65.5155 230.018 65.4148 229.376 65.4148H228.074C227.671 65.4148 227.363 65.4526 227.149 65.5281C226.948 65.591 226.809 65.7294 226.734 65.9433C226.658 66.1446 226.62 66.4655 226.62 66.9058V76.4181C226.62 76.8458 226.658 77.1667 226.734 77.3806C226.809 77.5945 226.948 77.7392 227.149 77.8147C227.363 77.8776 227.671 77.9091 228.074 77.9091H229.3C230.018 77.9091 230.584 77.7958 230.999 77.5693C231.427 77.3428 231.748 76.9717 231.962 76.4558C232.188 75.9399 232.358 75.2353 232.471 74.342H232.905C232.868 74.7069 232.849 75.185 232.849 75.7764C232.849 76.028 232.855 76.3929 232.868 76.871C232.893 77.3491 232.93 77.8398 232.981 78.3431C232.339 78.318 231.616 78.3054 230.81 78.3054C230.005 78.2928 229.288 78.2865 228.659 78.2865C228.369 78.2865 227.998 78.2865 227.545 78.2865C227.092 78.2865 226.602 78.2928 226.073 78.3054C225.557 78.3054 225.029 78.3117 224.488 78.3243C223.959 78.3243 223.45 78.3306 222.959 78.3431V77.9657C223.387 77.9405 223.708 77.8902 223.922 77.8147C224.135 77.7392 224.274 77.5882 224.337 77.3617C224.412 77.1352 224.45 76.7955 224.45 76.3426V66.9813C224.45 66.5158 224.412 66.1761 224.337 65.9622C224.274 65.7357 224.129 65.5847 223.903 65.5092C223.689 65.4211 223.374 65.3708 222.959 65.3582V64.9808C223.45 64.9933 223.959 65.0059 224.488 65.0185C225.029 65.0185 225.557 65.0248 226.073 65.0374C226.602 65.0374 227.092 65.0374 227.545 65.0374C227.998 65.0374 228.369 65.0374 228.659 65.0374C229.238 65.0374 229.892 65.0374 230.622 65.0374C231.364 65.0248 232.025 65.0059 232.603 64.9808ZM229.47 71.4355C229.47 71.4355 229.47 71.4984 229.47 71.6242C229.47 71.75 229.47 71.8129 229.47 71.8129H226.054C226.054 71.8129 226.054 71.75 226.054 71.6242C226.054 71.4984 226.054 71.4355 226.054 71.4355H229.47ZM230.018 68.9442C229.967 69.6614 229.942 70.2087 229.942 70.5862C229.955 70.9636 229.961 71.3096 229.961 71.6242C229.961 71.9388 229.967 72.2848 229.98 72.6622C229.992 73.0397 230.024 73.587 230.074 74.3042H229.64C229.577 73.889 229.495 73.4927 229.395 73.1152C229.294 72.7252 229.112 72.4106 228.847 72.1715C228.596 71.9325 228.2 71.8129 227.658 71.8129V71.4355C228.061 71.4355 228.376 71.3537 228.602 71.1901C228.841 71.0265 229.024 70.8126 229.149 70.5484C229.275 70.2842 229.363 70.0137 229.414 69.7369C229.477 69.4475 229.533 69.1832 229.584 68.9442H230.018ZM234.607 64.9808C234.897 64.9933 235.268 65.0059 235.721 65.0185C236.186 65.0311 236.646 65.0374 237.099 65.0374C237.703 65.0374 238.275 65.0311 238.816 65.0185C239.37 65.0059 239.76 64.9996 239.986 64.9996C241.056 64.9996 241.943 65.138 242.647 65.4148C243.365 65.6917 243.893 66.0817 244.233 66.585C244.585 67.0757 244.761 67.6419 244.761 68.2836C244.761 68.6737 244.68 69.0889 244.516 69.5293C244.365 69.9571 244.094 70.3597 243.704 70.7372C243.314 71.102 242.786 71.404 242.119 71.6431C241.452 71.8821 240.603 72.0017 239.571 72.0017H237.759V71.6242H239.382C240.225 71.6242 240.867 71.4858 241.307 71.209C241.76 70.9196 242.062 70.5421 242.213 70.0766C242.377 69.5985 242.459 69.07 242.459 68.4912C242.459 67.4972 242.245 66.7297 241.817 66.1887C241.389 65.635 240.647 65.3582 239.59 65.3582C239.049 65.3582 238.69 65.4652 238.514 65.6791C238.351 65.893 238.269 66.3271 238.269 66.9813V76.3426C238.269 76.7955 238.307 77.1352 238.382 77.3617C238.458 77.5882 238.602 77.7392 238.816 77.8147C239.03 77.8902 239.345 77.9405 239.76 77.9657V78.3431C239.458 78.318 239.074 78.3054 238.609 78.3054C238.156 78.2928 237.69 78.2865 237.212 78.2865C236.683 78.2865 236.186 78.2928 235.721 78.3054C235.268 78.3054 234.897 78.318 234.607 78.3431V77.9657C235.035 77.9405 235.356 77.8902 235.57 77.8147C235.784 77.7392 235.922 77.5882 235.985 77.3617C236.061 77.1352 236.098 76.7955 236.098 76.3426V66.9813C236.098 66.5158 236.061 66.1761 235.985 65.9622C235.922 65.7357 235.778 65.5847 235.551 65.5092C235.337 65.4211 235.023 65.3708 234.607 65.3582V64.9808ZM237.797 71.6808C238.439 71.706 238.955 71.7374 239.345 71.7752C239.735 71.8004 240.062 71.8255 240.326 71.8507C240.59 71.8758 240.836 71.9073 241.062 71.9451C242.006 72.0709 242.692 72.3225 243.119 72.7C243.56 73.0775 243.862 73.6562 244.025 74.4363L244.497 76.3614C244.61 76.9025 244.73 77.2862 244.856 77.5127C244.994 77.7392 245.195 77.8524 245.46 77.8524C245.661 77.8398 245.825 77.7832 245.95 77.6826C246.089 77.5693 246.233 77.4183 246.384 77.2296L246.649 77.4372C246.359 77.8273 246.057 78.1229 245.743 78.3243C245.428 78.513 245.007 78.6074 244.478 78.6074C243.937 78.6074 243.472 78.469 243.082 78.1922C242.704 77.9028 242.434 77.3617 242.27 76.569L241.893 74.6817C241.779 74.1407 241.653 73.6751 241.515 73.2851C241.377 72.8824 241.182 72.5679 240.93 72.3414C240.691 72.1149 240.339 72.0017 239.873 72.0017H237.835L237.797 71.6808ZM251.388 64.7543C252.054 64.7543 252.564 64.8298 252.916 64.9808C253.269 65.1317 253.577 65.2953 253.841 65.4715C253.992 65.5595 254.112 65.6287 254.2 65.6791C254.3 65.7168 254.395 65.7357 254.483 65.7357C254.609 65.7357 254.697 65.6665 254.747 65.5281C254.81 65.3897 254.86 65.1821 254.898 64.9053H255.332C255.319 65.1317 255.301 65.4023 255.275 65.7168C255.263 66.0188 255.25 66.4214 255.238 66.9247C255.238 67.428 255.238 68.0886 255.238 68.9064H254.804C254.766 68.2899 254.627 67.6922 254.388 67.1135C254.162 66.5347 253.822 66.0628 253.369 65.6979C252.929 65.3331 252.363 65.1506 251.671 65.1506C251.029 65.1506 250.494 65.3456 250.066 65.7357C249.651 66.1132 249.444 66.6165 249.444 67.2456C249.444 67.7992 249.582 68.2647 249.859 68.6422C250.136 69.0071 250.513 69.3531 250.991 69.6802C251.482 69.9948 252.035 70.3471 252.652 70.7372C253.281 71.1398 253.847 71.5424 254.351 71.9451C254.854 72.3351 255.25 72.7692 255.54 73.2473C255.829 73.7254 255.974 74.3042 255.974 74.9837C255.974 75.8015 255.779 76.481 255.389 77.022C255.011 77.5505 254.502 77.9468 253.86 78.211C253.218 78.4753 252.514 78.6074 251.746 78.6074C251.041 78.6074 250.482 78.5319 250.066 78.3809C249.651 78.2299 249.299 78.0726 249.009 77.9091C248.733 77.7329 248.519 77.6448 248.368 77.6448C248.242 77.6448 248.148 77.714 248.085 77.8524C248.034 77.9908 247.99 78.1984 247.953 78.4753H247.518C247.544 78.1984 247.556 77.8776 247.556 77.5127C247.569 77.1352 247.575 76.6445 247.575 76.0406C247.588 75.4366 247.594 74.6754 247.594 73.7569H248.028C248.078 74.537 248.217 75.2668 248.443 75.9462C248.682 76.6257 249.041 77.173 249.519 77.5882C250.01 77.9908 250.658 78.1922 251.463 78.1922C251.891 78.1922 252.287 78.1104 252.652 77.9468C253.017 77.7832 253.313 77.5253 253.539 77.173C253.766 76.8207 253.879 76.3677 253.879 75.8141C253.879 75.2982 253.753 74.8453 253.501 74.4552C253.262 74.0652 252.923 73.7066 252.482 73.3794C252.054 73.0397 251.551 72.6937 250.972 72.3414C250.381 71.9639 249.827 71.5865 249.311 71.209C248.796 70.8315 248.38 70.3911 248.066 69.8878C247.764 69.3846 247.613 68.7869 247.613 68.0949C247.613 67.3274 247.789 66.6982 248.141 66.2075C248.506 65.7168 248.972 65.3519 249.538 65.1129C250.117 64.8738 250.733 64.7543 251.388 64.7543Z" fill="black"/>
<path d="M0.74707 44.1495C1.47153 44.181 2.40073 44.2125 3.53466 44.244C4.7001 44.2755 5.84978 44.2913 6.98372 44.2913C8.49563 44.2913 9.9288 44.2755 11.2832 44.244C12.6691 44.2125 13.6456 44.1968 14.2126 44.1968C18.2128 44.1968 21.2052 44.9685 23.1896 46.5119C25.1739 48.0238 26.1661 49.9925 26.1661 52.4178C26.1661 53.3943 25.9614 54.4337 25.5519 55.5362C25.1739 56.6071 24.4967 57.615 23.5203 58.56C22.5438 59.4734 21.2209 60.2294 19.5515 60.8279C17.8821 61.4263 15.756 61.7256 13.1731 61.7256H8.63738V60.7806H12.7006C14.811 60.7806 16.4174 60.4341 17.5199 59.7412C18.6538 59.0167 19.4098 58.0718 19.7877 56.9063C20.1972 55.7094 20.402 54.3865 20.402 52.9376C20.402 50.4492 19.8665 48.5278 18.7956 47.1734C17.7246 45.7875 15.8662 45.0945 13.2204 45.0945C11.8659 45.0945 10.9682 45.3622 10.5273 45.8977C10.1178 46.4332 9.91305 47.5199 9.91305 49.1578V72.5924C9.91305 73.7264 10.0075 74.5768 10.1965 75.1438C10.3855 75.7108 10.7478 76.0887 11.2832 76.2777C11.8187 76.4667 12.6062 76.5927 13.6456 76.6557V77.6007C12.8896 77.5377 11.9289 77.5062 10.7635 77.5062C9.62957 77.4747 8.46413 77.4589 7.2672 77.4589C5.94428 77.4589 4.7001 77.4747 3.53466 77.5062C2.40073 77.5062 1.47153 77.5377 0.74707 77.6007V76.6557C1.81801 76.5927 2.62121 76.4667 3.15668 76.2777C3.69215 76.0887 4.03863 75.7108 4.19613 75.1438C4.38512 74.5768 4.47961 73.7264 4.47961 72.5924V49.1578C4.47961 47.9923 4.38512 47.1419 4.19613 46.6064C4.03863 46.0394 3.67641 45.6615 3.10944 45.4725C2.57397 45.252 1.78651 45.126 0.74707 45.0945V44.1495ZM8.73187 60.9224C10.3383 60.9853 11.6297 61.0641 12.6062 61.1586C13.5826 61.2216 14.4015 61.2846 15.063 61.3476C15.7245 61.4106 16.3387 61.4893 16.9057 61.5838C19.268 61.8988 20.9847 62.5288 22.0556 63.4737C23.1581 64.4187 23.914 65.8676 24.3235 67.8205L25.5047 72.6397C25.7882 73.9941 26.0874 74.9548 26.4024 75.5218C26.7489 76.0887 27.2528 76.3722 27.9143 76.3722C28.4183 76.3407 28.8277 76.199 29.1427 75.947C29.4892 75.6635 29.8514 75.2855 30.2294 74.8131L30.8909 75.3328C30.1664 76.3092 29.4105 77.0494 28.623 77.5534C27.8355 78.0259 26.7804 78.2621 25.4574 78.2621C24.103 78.2621 22.9376 77.9156 21.9611 77.2227C21.0162 76.4982 20.339 75.1438 19.9295 73.1594L18.9845 68.4347C18.7011 67.0803 18.3861 65.9148 18.0396 64.9384C17.6931 63.9304 17.2049 63.143 16.5749 62.576C15.9765 62.009 15.0945 61.7256 13.9291 61.7256H8.82636L8.73187 60.9224Z" fill="black"/>
<path d="M58.5819 44.1495C58.4559 45.3465 58.3614 46.5119 58.2984 47.6459C58.2669 48.7483 58.2511 49.5987 58.2511 50.1972C58.2511 50.7957 58.2669 51.3626 58.2984 51.8981C58.3299 52.4336 58.3614 52.8746 58.3929 53.221H57.3062C57.0857 51.2052 56.7392 49.6145 56.2667 48.4491C55.8258 47.2836 55.1486 46.4647 54.2351 45.9922C53.3532 45.4882 52.109 45.2362 50.5026 45.2362H47.2425C46.2346 45.2362 45.4629 45.3307 44.9274 45.5197C44.4234 45.6772 44.0769 46.0237 43.8879 46.5592C43.699 47.0631 43.6045 47.8663 43.6045 48.9688V72.7814C43.6045 73.8524 43.699 74.6556 43.8879 75.191C44.0769 75.7265 44.4234 76.0887 44.9274 76.2777C45.4629 76.4352 46.2346 76.514 47.2425 76.514H50.3136C52.109 76.514 53.5264 76.2305 54.5658 75.6635C55.6368 75.0966 56.44 74.1674 56.9755 72.8759C57.5424 71.5845 57.9677 69.8206 58.2511 67.5842H59.3378C59.2433 68.4977 59.1961 69.6946 59.1961 71.175C59.1961 71.805 59.2118 72.7184 59.2433 73.9154C59.3063 75.1123 59.4008 76.3407 59.5268 77.6007C57.9204 77.5377 56.1093 77.5062 54.0934 77.5062C52.0775 77.4747 50.2821 77.4589 48.7072 77.4589C47.7307 77.4589 46.4235 77.4589 44.7856 77.4589C43.1792 77.4589 41.4468 77.4747 39.5884 77.5062C37.7615 77.5062 36.0449 77.5377 34.4385 77.6007V76.6557C35.5094 76.5927 36.3126 76.4667 36.8481 76.2777C37.3836 76.0887 37.73 75.7108 37.8875 75.1438C38.0765 74.5768 38.171 73.7264 38.171 72.5924V49.1578C38.171 47.9923 38.0765 47.1419 37.8875 46.6064C37.73 46.0394 37.3678 45.6615 36.8008 45.4725C36.2654 45.252 35.4779 45.126 34.4385 45.0945V44.1495C36.0449 44.181 37.7615 44.2125 39.5884 44.244C41.4468 44.2755 43.1792 44.2913 44.7856 44.2913C46.4235 44.2913 47.7307 44.2913 48.7072 44.2913C50.1561 44.2913 51.794 44.2913 53.6209 44.2913C55.4793 44.2598 57.1329 44.2125 58.5819 44.1495ZM50.7388 60.3081C50.7388 60.3081 50.7388 60.4656 50.7388 60.7806C50.7388 61.0956 50.7388 61.2531 50.7388 61.2531H42.187C42.187 61.2531 42.187 61.0956 42.187 60.7806C42.187 60.4656 42.187 60.3081 42.187 60.3081H50.7388ZM52.109 54.0715C51.983 55.8669 51.92 57.2371 51.92 58.182C51.9515 59.127 51.9672 59.9932 51.9672 60.7806C51.9672 61.5681 51.983 62.4343 52.0145 63.3792C52.046 64.3242 52.1247 65.6943 52.2507 67.4897H51.164C51.0065 66.4503 50.8018 65.4581 50.5498 64.5131C50.2978 63.5367 49.8411 62.7492 49.1796 62.1508C48.5497 61.5523 47.5575 61.2531 46.2031 61.2531V60.3081C47.5575 60.3081 48.5339 59.9617 49.1324 59.2687C49.7624 58.5442 50.1876 57.6938 50.4081 56.7173C50.6601 55.7409 50.8648 54.8589 51.0223 54.0715H52.109Z" fill="#DB1924"/>
<path d="M80.0883 43.9606L91.6166 73.6319C92.0576 74.7973 92.5616 75.5848 93.1285 75.9943C93.727 76.4037 94.2782 76.6242 94.7822 76.6557V77.6007C94.0262 77.5377 93.1285 77.5062 92.0891 77.5062C91.0811 77.4747 90.0574 77.4589 89.018 77.4589C87.6951 77.4589 86.4667 77.4747 85.3327 77.5062C84.1988 77.5062 83.2853 77.5377 82.5924 77.6007V76.6557C84.1988 76.5927 85.2067 76.325 85.6162 75.8525C86.0572 75.3485 85.9627 74.2934 85.3327 72.6869L76.8282 49.7247L77.5842 48.8743L69.7411 69.3796C68.9851 71.2695 68.6229 72.7342 68.6544 73.7736C68.6859 74.8131 69.0481 75.5533 69.7411 75.9943C70.4656 76.4037 71.4892 76.6242 72.8122 76.6557V77.6007C71.8672 77.5377 70.9065 77.5062 69.9301 77.5062C68.9851 77.4747 68.0874 77.4589 67.237 77.4589C66.481 77.4589 65.8038 77.4747 65.2054 77.5062C64.6384 77.5062 64.1187 77.5377 63.6462 77.6007V76.6557C64.3077 76.4982 64.9691 76.1045 65.6306 75.4745C66.292 74.8446 66.922 73.7736 67.5205 72.2617L78.4818 43.9606C78.7338 43.9606 79.0016 43.9606 79.2851 43.9606C79.5685 43.9606 79.8363 43.9606 80.0883 43.9606ZM85.0492 63.9934V64.9384H70.9695L71.442 63.9934H85.0492Z" fill="#DB1924"/>
<path d="M138.9 43.5826C140.57 43.5826 141.846 43.7716 142.728 44.1495C143.609 44.5275 144.381 44.937 145.043 45.378C145.421 45.5985 145.72 45.7717 145.94 45.8977C146.192 45.9922 146.429 46.0394 146.649 46.0394C147.153 46.0394 147.5 45.3465 147.688 43.9606H148.775C148.744 44.5275 148.696 45.2047 148.633 45.9922C148.602 46.7482 148.57 47.7561 148.539 49.016C148.539 50.276 148.539 51.9296 148.539 53.977H147.452C147.358 52.4336 147.011 50.9374 146.413 49.4885C145.846 48.0396 144.995 46.8584 143.861 45.9449C142.759 45.0315 141.342 44.5748 139.609 44.5748C138.003 44.5748 136.664 45.063 135.593 46.0394C134.554 46.9844 134.034 48.2443 134.034 49.8192C134.034 51.2052 134.38 52.3706 135.073 53.3155C135.766 54.229 136.711 55.0952 137.908 55.9141C139.137 56.7016 140.523 57.5835 142.066 58.56C143.641 59.5679 145.058 60.5759 146.318 61.5838C147.578 62.5603 148.57 63.6469 149.295 64.8439C150.019 66.0408 150.382 67.4897 150.382 69.1906C150.382 71.238 149.893 72.9389 148.917 74.2933C147.972 75.6163 146.696 76.6085 145.09 77.2699C143.483 77.9314 141.72 78.2621 139.798 78.2621C138.034 78.2621 136.633 78.0731 135.593 77.6952C134.554 77.3172 133.672 76.9235 132.947 76.514C132.254 76.073 131.719 75.8525 131.341 75.8525C130.837 75.8525 130.49 76.5455 130.301 77.9314H129.215C129.278 77.2384 129.309 76.4352 129.309 75.5218C129.341 74.5768 129.357 73.3484 129.357 71.8365C129.388 70.3246 129.404 68.4189 129.404 66.1196H130.49C130.616 68.0724 130.963 69.8993 131.53 71.6003C132.128 73.3012 133.026 74.6713 134.223 75.7108C135.451 76.7187 137.074 77.2227 139.089 77.2227C140.664 77.2227 142.066 76.7502 143.294 75.8053C144.523 74.8288 145.137 73.3169 145.137 71.2695C145.137 69.3481 144.46 67.7575 143.105 66.4975C141.783 65.2061 140.034 63.8989 137.861 62.576C136.381 61.6311 134.995 60.6861 133.703 59.7412C132.412 58.7962 131.372 57.6938 130.585 56.4339C129.829 55.1739 129.451 53.6778 129.451 51.9454C129.451 50.024 129.892 48.4491 130.774 47.2206C131.687 45.9922 132.853 45.0787 134.27 44.4803C135.719 43.8818 137.263 43.5826 138.9 43.5826Z" fill="#DB1924"/>
<path d="M183.065 44.1495V45.0945C182.435 45.252 181.79 45.693 181.128 46.4174C180.498 47.1104 179.789 48.2128 179.002 49.7247L169.694 68.1984H168.419L157.363 47.7876C156.733 46.6537 156.197 45.9292 155.756 45.6142C155.347 45.2992 154.969 45.1417 154.622 45.1417V44.1495C155.315 44.181 156.04 44.2125 156.796 44.244C157.552 44.2755 158.371 44.2913 159.253 44.2913C160.387 44.2913 161.615 44.2913 162.938 44.2913C164.261 44.2598 165.489 44.2125 166.623 44.1495V45.1417C165.836 45.1417 165.127 45.2205 164.497 45.378C163.899 45.5355 163.489 45.8505 163.269 46.3229C163.08 46.7639 163.206 47.4096 163.647 48.2601L171.442 63.2375L170.686 64.0407L176.498 52.4651C177.474 50.5437 177.963 49.0633 177.963 48.0238C177.994 46.9529 177.648 46.2127 176.923 45.8032C176.23 45.3622 175.222 45.126 173.899 45.0945V44.1495C174.876 44.181 175.836 44.2125 176.781 44.244C177.726 44.2755 178.624 44.2913 179.475 44.2913C180.262 44.2913 180.939 44.2755 181.506 44.244C182.073 44.2125 182.593 44.181 183.065 44.1495ZM172.198 62.387V72.5924C172.198 73.7264 172.293 74.5768 172.482 75.1438C172.671 75.7108 173.033 76.0887 173.569 76.2777C174.104 76.4667 174.892 76.5927 175.931 76.6557V77.6007C175.175 77.5377 174.214 77.5062 173.049 77.5062C171.883 77.4747 170.702 77.4589 169.505 77.4589C168.214 77.4589 166.985 77.4747 165.82 77.5062C164.655 77.5062 163.725 77.5377 163.032 77.6007V76.6557C164.103 76.5927 164.907 76.4667 165.442 76.2777C165.978 76.0887 166.324 75.7108 166.481 75.1438C166.67 74.5768 166.765 73.7264 166.765 72.5924V62.9067L169.836 65.8361L172.198 62.387Z" fill="#DB1924"/>
<path d="M106.88 72.7181V39.6275L101.446 34.1978V72.5292C101.446 73.6631 101.352 74.5135 101.163 75.0805C101.005 75.6475 100.659 76.0255 100.123 76.2144C99.588 76.4034 98.7848 76.5294 97.7139 76.5924V77.5374C99.3203 77.4744 101.037 77.4429 102.864 77.4429C104.722 77.4114 106.455 77.3956 108.061 77.3956H111.983C113.557 77.3956 115.353 77.4114 117.369 77.4429C119.385 77.4429 121.196 77.4744 122.802 77.5374C122.676 76.2459 122.582 75.0018 122.519 73.8048C122.487 72.5764 122.471 71.6472 122.471 71.0172C122.471 69.3793 122.519 68.0564 122.613 67.0485H121.527C121.275 69.1903 120.865 70.9543 120.298 72.3402C119.731 73.7261 118.912 74.7655 117.841 75.4585C116.77 76.12 115.321 76.4507 113.494 76.4507H110.423C109.447 76.4507 108.691 76.3719 108.156 76.2144C107.652 76.0255 107.305 75.6632 107.116 75.1278C106.959 74.5923 106.88 73.7891 106.88 72.7181Z" fill="black"/>
<path d="M255.915 84.8406H0.488281V86.198H255.915V84.8406Z" fill="#DB1924"/>
</svg>
