<svg width="22" height="22" viewBox="0 0 22 22" fill="none" xmlns="http://www.w3.org/2000/svg">
<path d="M20.7167 22C18.1704 22 15.6546 21.4451 13.1694 20.3353C10.6843 19.2256 8.42315 17.6517 6.38611 15.6139C4.34907 13.576 2.77567 11.3149 1.66589 8.83056C0.556111 6.34619 0.000814815 3.83044 0 1.28333C0 0.916667 0.122222 0.611111 0.366667 0.366667C0.611111 0.122222 0.916667 0 1.28333 0H6.23333C6.51852 0 6.77315 0.0969629 6.99722 0.290889C7.2213 0.484815 7.3537 0.713778 7.39444 0.977778L8.18889 5.25556C8.22963 5.58148 8.21944 5.85648 8.15833 6.08056C8.09722 6.30463 7.98518 6.49815 7.82222 6.66111L4.85833 9.65555C5.26574 10.4093 5.74933 11.1373 6.30911 11.8397C6.86889 12.542 7.4853 13.2196 8.15833 13.8722C8.78981 14.5037 9.45185 15.0896 10.1444 15.6298C10.837 16.17 11.5704 16.6638 12.3444 17.1111L15.2167 14.2389C15.4 14.0556 15.6396 13.9183 15.9353 13.827C16.2311 13.7357 16.5212 13.7101 16.8056 13.75L21.0222 14.6056C21.3074 14.687 21.5417 14.8349 21.725 15.0492C21.9083 15.2635 22 15.5027 22 15.7667V20.7167C22 21.0833 21.8778 21.3889 21.6333 21.6333C21.3889 21.8778 21.0833 22 20.7167 22Z" fill="#DB1924"/>
</svg>
