<svg width="20" height="20" viewBox="0 0 20 20" fill="none" xmlns="http://www.w3.org/2000/svg">
<path fill-rule="evenodd" clip-rule="evenodd" d="M17.9239 0.000634958C18.2192 0.000818497 18.5024 0.118206 18.7112 0.327013C18.92 0.535821 19.0374 0.818971 19.0375 1.11427L19.0375 13.7214C19.0428 13.871 19.0179 14.0201 18.9643 14.1598C18.9108 14.2995 18.8296 14.427 18.7256 14.5347C18.6217 14.6423 18.4972 14.728 18.3594 14.7865C18.2217 14.8449 18.0736 14.8751 17.9239 14.8751C17.7743 14.8751 17.6262 14.8449 17.4884 14.7865C17.3507 14.728 17.2261 14.6423 17.1222 14.5347C17.0183 14.427 16.9371 14.2995 16.8835 14.1598C16.8299 14.0201 16.805 13.871 16.8103 13.7214L16.8103 3.8038L1.90229 18.7118C1.69331 18.9208 1.40988 19.0382 1.11434 19.0382C0.818802 19.0382 0.53537 18.9208 0.326392 18.7118C0.117416 18.5028 1.33082e-05 18.2194 1.33082e-05 17.9238C1.33082e-05 17.6283 0.117415 17.3449 0.326392 17.1359L15.2344 2.2279L5.31673 2.2279C5.16718 2.23318 5.0181 2.20828 4.87838 2.1547C4.73866 2.10111 4.61116 2.01993 4.5035 1.916C4.39583 1.81206 4.3102 1.68751 4.25172 1.54977C4.19324 1.41202 4.1631 1.26391 4.1631 1.11427C4.1631 0.964624 4.19324 0.816513 4.25172 0.678769C4.3102 0.541027 4.39583 0.416475 4.5035 0.312543C4.61116 0.208612 4.73866 0.12743 4.87838 0.0738411C5.0181 0.0202527 5.16718 -0.00464443 5.31673 0.000634937L17.9239 0.000634958Z" fill="white"/>
</svg>
